<?xml version="1.0" encoding="UTF-8"?>
<svg width="87" height="68.1" version="1.1" viewBox="0 0 23.019 18.018" xmlns="http://www.w3.org/2000/svg" xmlns:cc="http://creativecommons.org/ns#" xmlns:dc="http://purl.org/dc/elements/1.1/" xmlns:osb="http://www.openswatchbook.org/uri/2009/osb" xmlns:rdf="http://www.w3.org/1999/02/22-rdf-syntax-ns#" xmlns:xlink="http://www.w3.org/1999/xlink">
 <defs>
  <filter id="filter1030" x="-5.2413e-5" y="-6.6959e-5" width="1.0001" height="1.0001" color-interpolation-filters="sRGB">
   <feGaussianBlur stdDeviation="0.001899975"/>
  </filter>
 </defs>
 <metadata>
  <rdf:RDF>
   <cc:Work rdf:about="">
    <dc:format>image/svg+xml</dc:format>
    <dc:type rdf:resource="http://purl.org/dc/dcmitype/StillImage"/>
    <dc:title/>
   </cc:Work>
  </rdf:RDF>
 </metadata>
 <rect x=".20351" y=".24735" width="22.797" height="17.737" ry="0" fill="#fff" stroke="#fff" stroke-linejoin="round" stroke-width=".25175"/>
 <g id="Page-1_1_" transform="matrix(.26458 0 0 .26458 .00099998 .04216)" fill="#82ff65" filter="url(#filter1030)">
  <g id="full_1_" fill="#82ff65">
   <path id="Combined-Shape_1_" class="st1" d="m38.1 63.1-4.6-0.7-2.4-6.8 1.7-0.2 1.9 5.4 3.4 0.6c0.1-0.6 0.4-1.2 0.7-1.7 0.5-0.8 1.2-1.4 2-1.8v-1.5c-3.5-0.7-6.6-2.5-8.9-5-0.3-0.4-0.6-0.7-0.9-1.1l1.5-0.8c0.2 0.3 0.4 0.6 0.6 0.8 1.7 2 4.1 3.5 6.7 4.2 0.8 0.3 1.7 0.5 2.6 0.6v8.8l-2.7-0.4c0.2 0.7 0.5 1.3 1 1.8 0.7 0.7 1.6 1.1 2.6 1.1s1.9-0.4 2.6-1.1c0.5-0.5 0.8-1.1 1-1.7l-2.6 0.4v-9c0.9-0.1 1.8-0.3 2.6-0.6 2.6-0.7 4.9-2.2 6.7-4.2 0.2-0.3 0.4-0.5 0.7-0.8l1.5 0.8c-0.3 0.4-0.6 0.8-0.9 1.1-2.2 2.6-5.4 4.4-8.9 5v1.7c0.7 0.4 1.3 1 1.8 1.6 0.4 0.6 0.6 1.2 0.8 1.9l3.6-0.6 1.9-5.4 1.7 0.2-2.4 6.8-4.7 0.8c-0.1 1.3-0.7 2.4-1.5 3.2-1 1-2.3 1.6-3.8 1.6s-2.8-0.6-3.8-1.6c-0.8-1-1.4-2.1-1.5-3.4zm2.8-3.2c-0.2 0.2-0.4 0.4-0.6 0.7s-0.4 0.7-0.5 1.1l1 0.2v-2zm6 1.8c-0.1-0.4-0.3-0.8-0.5-1.2-0.1-0.2-0.2-0.3-0.4-0.5v1.8zm26.4-61.7 13.7 18.2-15.4 16.4-8.7-2.3-0.5 3.4-2.2 0.3c-0.4-2.2-1.4-4.3-2.7-6.1l1.2-1.1c1 1.3 1.7 2.7 2.3 4.2l0.4-2.8 9.6 2.6 13.7-14.7-8-10.8 4.1 8.9-9.3 9-1.7-0.7 2.5-2.5 6.4-6.2-6.9-15zm-27.3 24.4 5.2-4.8 2.3 0.1-1.7 1.6-1.6 1.5c1.8 0.6 3.5 1.4 5 2.5l-1.2 1.2c-1.5-1.1-3.3-1.9-5.2-2.4l-0.7 0.7c-0.5-0.1-1.3-0.3-2.1-0.4zm9.7-4.5 9.1 0.5 4.7 2.1-1.3 1.3-3.8-1.7-1-0.1-5 4.9-1.9 1.8-1.2-1.2 5.7-5.7-6.9-0.4zm-11.3 11.8v-5.7c0.5 0 1.1 0.1 1.7 0.2v4.3c1.4 0.4 2.7 1 3.8 1.9l2-1.8c-1.2-1-2.6-1.7-4.1-2.2v-1.8c2.5 0.8 4.8 2.2 6.6 4l-2.7 2.4-0.5 0.5c0.9 0.9 1.6 1.9 2.1 3 0.1 0.1 0.1 0.2 0.2 0.4l-1.5 0.7c-0.1-0.1-0.1-0.2-0.1-0.3-0.9-2-2.5-3.6-4.5-4.5-1.1-0.6-2-0.9-3-1.1zm9.8 1.2 1.2-1.1c1.4 1.8 2.5 4 3 6.3l2.1-0.3 1.7-0.3-1.3 9.3-4.1 6-0.4 1.2-1.7-0.1 0.6-1.8 4-5.9 0.9-6.6-3.2 0.4-2.7 0.4v0.8c0 1.4-0.2 2.8-0.7 4l2.4 1.2c0.6-1.5 1-3.1 1.1-4.8l1.7-0.3c0 2.7-0.7 5.2-2 7.3l-3.8-2-0.1-0.1c-0.3 0.6-0.7 1.1-1.1 1.6-1.4 1.7-3.4 3.1-5.7 3.7v1.2c-0.5 0.2-1.1 0.3-1.7 0.4v-20c0.6 0.1 1.1 0.3 1.7 0.5v16.3c1.7-0.6 3.3-1.6 4.4-3 1.4-1.7 2.2-3.8 2.2-6.1v-0.6l-2.5 0.4v4.3h-1.7v-5.8l8.2-1.3c-0.4-1.8-1.3-3.6-2.5-5.2zm-40.5-32.9 1.4 0.9-6.9 15 6.4 6.2 2.5 2.5-1.7 0.7-9.3-9 4.1-8.9-8 10.7 13.7 14.7 9.6-2.6 0.4 2.8c0.6-1.5 1.4-2.9 2.3-4.2l1.2 1.1c-1.3 1.8-2.2 3.9-2.7 6.1l-2.2-0.3-0.5-3.4-8.7 2.3-15.3-16.4zm19.7 19.7 2.3-0.1 5.2 4.8c-0.7 0.1-1.5 0.2-2.1 0.4l-0.7-0.7c-1.9 0.5-3.6 1.3-5.2 2.4l-1.2-1.2c1.5-1.1 3.2-1.9 5-2.5l-1.6-1.5zm-11.2 0.7 9.2-0.5-0.1 0.1 1.6 1.5-7 0.4 5.7 5.7c-0.4 0.4-0.8 0.7-1.2 1.2l-1.9-1.8-5-4.9-1 0.1-3.8 1.7-1.3-1.3zm17.8 5.9c0.7-0.1 1.8-0.2 2.5-0.3v23c-0.6-0.1-1.1-0.3-1.7-0.5v-20.7c-2.2 0.4-4.1 1.4-5.8 2.7l2 1.8c0.7-0.5 1.4-0.9 2.1-1.3v1.9c-1.8 1-3.3 2.6-4.1 4.6l-1.5-0.7c0.5-1.3 1.3-2.4 2.3-3.4l-0.5-0.4-2.7-2.5c2-2 4.6-3.5 7.4-4.2zm-11.4 11.8c0.5-2.4 1.5-4.5 3-6.3l1.2 1.1c-1.2 1.6-2.1 3.4-2.5 5.4l8.2 1.3v5.8h-1.7v-4.3l-2.5-0.4v0.6c0 2.3 0.8 4.4 2.2 6.1 0.9 1.1 2 1.9 3.3 2.5 0.1 0.1 0.2 0.1 0.3 0.2 0.1 0 0.2 0.1 0.3 0.1s0.2 0.1 0.3 0.1 0.1 0 0.2 0.1c0.5 0.2 1.1 0.3 1.7 0.4v2.6c-0.6-0.1-1.1-0.2-1.7-0.4v-0.9c-2.3-0.6-4.2-1.9-5.7-3.7-0.4-0.5-0.8-1-1.1-1.6h-0.1l-3.8 2c-1.2-2.2-1.9-4.7-2-7.3l1.7 0.3c0.1 1.7 0.4 3.3 1 4.8l2.4-1.2c-0.5-1.3-0.7-2.6-0.7-4v-0.8l-2.6-0.6-2.4-0.4-0.8-0.1 0.9 6.6 4 5.9 0.6 1.8-1.7 0.2-0.4-1.2-4.1-6-1.3-9.3 1.7 0.3z" fill="#82ff65"/>
  </g>
 </g>
 <style type="text/css">.st0{fill:#C8C8C8;}
	.st1{fill:#82FF65;}</style>
 <style type="text/css">.st0{fill:#C8C8C8;}
	.st1{fill:#82FF65;}</style>
 <use xlink:href="#Page-1_1_"/>
</svg>
