<?xml version="1.0" encoding="UTF-8"?>
<svg width="2e3" height="1500" version="1.1" viewBox="0 0 529.17 396.88" xmlns="http://www.w3.org/2000/svg" xmlns:cc="http://creativecommons.org/ns#" xmlns:dc="http://purl.org/dc/elements/1.1/" xmlns:rdf="http://www.w3.org/1999/02/22-rdf-syntax-ns#">
 <defs>
  <clipPath id="clipPath2629">
   <circle cx="39.488" cy="39.488" r="18.059" fill="#01a865"/>
  </clipPath>
  <clipPath id="clipPath2728">
   <ellipse cx="40.598" cy="42.788" rx="21.168" ry="17.438" d="M 61.765118,42.787693 A 21.167599,17.438246 0 0 1 40.597519,60.225939 21.167599,17.438246 0 0 1 19.42992,42.787693 21.167599,17.438246 0 0 1 40.597519,25.349447 21.167599,17.438246 0 0 1 61.765118,42.787693 Z" display="none" fill="#01de86"/>
   <path class="powerclip" d="m12.568 22.554h40.311v40.311h-40.311zm49.197 20.234a21.168 17.438 0 0 0-21.168-17.438 21.168 17.438 0 0 0-21.168 17.438 21.168 17.438 0 0 0 21.168 17.438 21.168 17.438 0 0 0 21.168-17.438z" fill="#01de86"/>
  </clipPath>
  <clipPath id="clipPath2629-5">
   <circle cx="39.488" cy="39.488" r="18.059" fill="#01a865"/>
  </clipPath>
  <clipPath id="clipath_lpe_path-effect4116">
   <ellipse cx="40.598" cy="42.788" rx="21.168" ry="17.438" d="M 61.765118,42.787693 A 21.167599,17.438246 0 0 1 40.597519,60.225939 21.167599,17.438246 0 0 1 19.42992,42.787693 21.167599,17.438246 0 0 1 40.597519,25.349447 21.167599,17.438246 0 0 1 61.765118,42.787693 Z" display="none" fill="#01de86"/>
   <path class="powerclip" d="m12.568 22.554h40.311v40.311h-40.311zm49.197 20.234a21.168 17.438 0 0 0-21.168-17.438 21.168 17.438 0 0 0-21.168 17.438 21.168 17.438 0 0 0 21.168 17.438 21.168 17.438 0 0 0 21.168-17.438z" fill="#01de86"/>
  </clipPath>
  <clipPath id="clipPath2629-0">
   <circle cx="39.488" cy="39.488" r="18.059" fill="#01a865"/>
  </clipPath>
  <clipPath id="clipath_lpe_path-effect4212">
   <ellipse cx="40.598" cy="42.788" rx="21.168" ry="17.438" d="M 61.765118,42.787693 A 21.167599,17.438246 0 0 1 40.597519,60.225939 21.167599,17.438246 0 0 1 19.42992,42.787693 21.167599,17.438246 0 0 1 40.597519,25.349447 21.167599,17.438246 0 0 1 61.765118,42.787693 Z" display="none" fill="#01de86"/>
   <path class="powerclip" d="m12.568 22.554h40.311v40.311h-40.311zm49.197 20.234a21.168 17.438 0 0 0-21.168-17.438 21.168 17.438 0 0 0-21.168 17.438 21.168 17.438 0 0 0 21.168 17.438 21.168 17.438 0 0 0 21.168-17.438z" fill="#01de86"/>
  </clipPath>
  <clipPath id="clipPath5332">
   <path d="m398.68 157.22s-0.98594-0.0556-2.5353 1.2302c0 0-9.0559 3.092-14.77-0.91855 0 0-2.2228-0.64259-6.6463-8.1791-4.4235-7.5365-6.517-11.197-16.338-18.657 0 0-0.79558-0.72307-1.4929 0.0832 0 0-10.582 9.3218-8.7216 21.495 1.6324 10.683 6.4044 15.375 6.4044 15.375s13.044 14.889 23.913 14.615 12.999-1.357 18.678-6.1819c5.6796-4.8249 8.1959-13.533 8.095-15.469l-5e-3 -0.2794s-4.6538 1.1399-8.6721 0.73397c0 0 2.5585-2.1056 2.0897-3.846z" fill="#10a3e8"/>
  </clipPath>
  <clipPath id="clipPath5353">
   <path d="m398.68 157.22s-0.98594-0.0556-2.5353 1.2302c0 0-9.0559 3.092-14.77-0.91855 0 0-2.2228-0.64259-6.6463-8.1791-4.4235-7.5365-6.517-11.197-16.338-18.657 0 0-0.79558-0.72307-1.4929 0.0832 0 0-10.582 9.3218-8.7216 21.495 1.6324 10.683 6.4044 15.375 6.4044 15.375s13.044 14.889 23.913 14.615 12.999-1.357 18.678-6.1819c5.6796-4.8249 8.1959-13.533 8.095-15.469l-5e-3 -0.2794s-4.6538 1.1399-8.6721 0.73397c0 0 2.5585-2.1056 2.0897-3.846z" fill="#10a3e8"/>
  </clipPath>
  <clipPath id="clipPath2629-9">
   <circle cx="39.488" cy="39.488" r="18.059" fill="#01a865"/>
  </clipPath>
  <clipPath id="clipPath5516">
   <path d="m357.23 183.52 1.2124 2.918s0.48797 0.8972-0.60164 0.936c-1.0896 0.0388-37.883 0.83679-59.297 1.9026 0 0-8.4092-1.2716-10.241 4.2256 0 0-2.3303 6.1108-8.2686 32.079-5.9383 25.968-6.8184 29.554-8.8558 34.857 0 0-0.29832 1.019 1.2622 0.20815 1.5605-0.81083 6.0344-3.1524 16.569-0.13954l0.5901-0.61344s-1.2073-4.5396 0.24654-12.541c0 0 0.8477-3.6125 2.4448-6.2764 1.5971-2.6638 1.215-6.8929 1.215-6.8929s0.22654-6.7619 3.334-19.051c0 0 2.3504-8.6458 3.0384-10.235 0 0 55.515-0.1573 63.317-1.2902 0 0 3.7721 13.769 7.7085 25.526 0 0 0.45601 2.6728 10.425 19.897 0 0 4.4166 7.2758 8.4788 12.533 0 0 14.333 18.682 20.435 25.661 0 0 7.2175 8.0119 8.8495 11.606 0 0 0.58714 0.89054 1.1412-0.67733 0.55404-1.5679 2.7772-8.7133 9.1045-9.2059l1.3855-0.074s1.0523 0.13631-0.21886-1.0156c-1.2712-1.1519-6.4949-6.3227-8.9859-10.388-2.491-4.0652-8.3056-12.991-8.3056-12.991l-12.787-18.149s-7.9004-8.3298-10.962-18.827c-3.0622-10.497-4.81-19.378-4.9564-22.953 0 0 4.3839-1.1427 4.9925-14.255 0.435-9.3723-0.89998-10.266-0.89998-10.266l-3.551-1.5672-22.571-1.7083-3.8703 3.6604z" fill="#5b2181"/>
  </clipPath>
 </defs>
 <metadata>
  <rdf:RDF>
   <cc:Work rdf:about="">
    <dc:format>image/svg+xml</dc:format>
    <dc:type rdf:resource="http://purl.org/dc/dcmitype/StillImage"/>
    <dc:title/>
   </cc:Work>
  </rdf:RDF>
 </metadata>
 <path d="m215.54 39.819s-60.453-4.6162-89.306 32.839c0 0-11.501 12.388-17.464 38.207-5.9621 25.818-32.355 49.703-55.959 74.892s-48.039 57.617-25.414 105.36c22.625 47.745 101.56 29.597 139.44 17.653 37.888-11.944 109.24-44.856 183.85-9.9588 74.602 34.897 124.66 9.0243 140.68-1.4397 16.024-10.464 47.8-39.157 34.886-94.711 0 0-21.146-64.912-123.95-73.434 0 0-21.787-1.2135-48.316 0.64633-26.529 1.8599-60.256-9.835-79.891-42.813-19.636-32.978-37.872-44.205-58.563-47.242z" fill="#f6efeb"/>
 <path d="m325.75 72.579s-8.0737-2.2199-12.849 8.4725c-4.7753 10.692-37.876 84.058-49.227 211.8 0 0-3.7961 47.953 6.7616 44.702l-3.5242 2.1627-5.2926-1.6386-2.7823-4.9635s-1.4446-3.4666-1.5282-3.8539c-0.0836-0.38722-6.6929-23.286 1.4095-83.445 0 0 6.2828-40.68 8.0259-45.837 1.7431-5.1566 5.1598-23.941 5.1598-23.941l2.3418-9.3132 11.64-39.018s6.4865-19.326 10.748-28.297c4.2615-8.9712 9.8059-22.702 20.099-30.015 0 0 7.2297-2.3613 9.0172 3.1832z" fill="#e3deda"/>
 <g fill="#01de86">
  <circle transform="matrix(.89759 -.44084 .022725 .99974 0 0)" cx="117.87" cy="93.095" r="0"/>
  <circle transform="matrix(.89759 -.44084 .022725 .99974 0 0)" cx="117.87" cy="93.095" r="0"/>
  <circle transform="matrix(.89759 -.44084 .022725 .99974 0 0)" cx="117.87" cy="93.095" r="0"/>
  <circle transform="matrix(.89759 -.44084 .022725 .99974 0 0)" cx="117.87" cy="93.095" r="0"/>
  <circle transform="matrix(.89759 -.44084 .022725 .99974 0 0)" cx="101.85" cy="84.634" r="0"/>
 </g>
 <ellipse transform="matrix(.51856 -.85504 -.10255 .99473 0 0)" cx="729.32" cy="832.2" rx="69.885" ry="122.47" fill="none" stroke="#01de86" stroke-width="1.6949"/>
 <g transform="translate(-78.761 -5.5208)">
  <path d="m273.8 258.71s-0.64246 5.6393-3.461 14.307l9.0599 0.88794s1.9782-9.2689 4.1677-15.124l-6.7929-1.7299z" fill="#e9b27b"/>
  <path d="m269.02 276.9s-0.39897-0.11533-0.7193 0.35939c-0.32033 0.47471-3.1808 5.0183-5.8319 6.8312s-6.3624 4.004-10.666 6.2634c0 0-0.50713 0.0725-0.2335 1.3777l0.13005 0.37407s0.27564 0.11459 1.2562-0.30678c0.98055-0.42135 8.1396-3.3086 17.776-6.2963l0.0592-0.55911s0.0575-0.80622 0.96282-0.757c0.90538 0.0492 0.69104 0.58647 0.69104 0.58647l0.16857 0.0454 0.39454-0.0919 4.5166-1.6184s0.6129-4.448 1.4335-6.9462c0.82055-2.4982-9.9377 0.73792-9.9377 0.73792z"/>
  <path d="m279.78 272.31s-0.63082 2.7981-0.82616 3.8512c0 0-1.8493 0.20185-2.8647 1.1299-1.0154 0.928-3.3794 1.3438-3.961 1.0077-0.58169-0.33613-3.112-1.3996-3.112-1.3996l1.5686-4.6024s3.0015 1.7083 9.1952 0.0132z" fill="#fff"/>
 </g>
 <path d="m278.47 178 1.2124 2.918s0.48797 0.8972-0.60164 0.936c-1.0896 0.0388-37.883 0.83679-59.297 1.9026 0 0-8.4092-1.2716-10.241 4.2256 0 0-2.3303 6.1108-8.2686 32.079-5.9383 25.968-6.8184 29.554-8.8558 34.857 0 0-0.29832 1.019 1.2622 0.20815 1.5605-0.81083 6.0344-3.1524 16.569-0.13954l0.59008-0.61344s-1.2073-4.5396 0.24654-12.541c0 0 0.84772-3.6125 2.4448-6.2764 1.5971-2.6638 1.215-6.8929 1.215-6.8929s0.22656-6.7619 3.334-19.051c0 0 2.3504-8.6458 3.0384-10.235 0 0 55.515-0.1573 63.317-1.2902 0 0 3.7721 13.769 7.7085 25.526 0 0 0.45603 2.6728 10.425 19.897 0 0 1.879 3.8124 5.9412 9.0691l5.6484-22.61s-1.0246-0.76075-3.4545-7.9864c-3.4853-10.364-4.81-19.378-4.9564-22.953 0 0 4.3839-1.1427 4.9925-14.255 0.43499-9.3723-0.89997-10.266-0.89997-10.266l-3.551-1.5672-22.571-1.7083-3.8703 3.6604z" fill="#5b2181"/>
 <path d="m269.08 148.51c1.7136 10.151 2.3283 12.122 5.467 20.738 3.1386 8.616 4.6688 8.3188 4.6688 8.3188 4.0118 0.84529 8.5095-1.429 8.5095-1.429l-0.73899-5.5143-2.734-5.6083-4.8244-7.1584-8.2549-10.454z" fill="#fff"/>
 <path d="m268.69 132.53s-0.99353 0.25243-0.22981 3.1113l-4.3325 13.449s-2.7261 11.967 0.12552 21.743c0 0 1.1835 3.1393 1.7857 4.5588l4.8981 3.3906 0.66356-4.3205s0.16164-0.61297-0.23572-1.4474c-0.39737-0.83447-5.4436-10.733-4.3267-22.373 0 0 0.0508-2.2959 0.80412-5.5899l3.2427-8.223 0.4245-1.3943-1.5831-2.4419-1.0466-0.75617z" fill="#311112"/>
 <path d="m279.26 124.98-0.74274-1.1658s-9.9435 7.0829-10.939 7.3068c0 0 2.1052 2.2803 2.9461 4.7377l0.97806-0.42415z" fill="#fff"/>
 <g transform="translate(-78.761 -5.5208)" fill="#10a3e8">
  <path d="m398.68 157.22s-0.98595-0.0556-2.5353 1.2302c0 0-9.0559 3.092-14.77-0.91855 0 0-2.2228-0.64259-6.6462-8.1791-4.4235-7.5365-6.517-11.197-16.338-18.657 0 0-0.79557-0.72307-1.4929 0.0832 0 0-10.582 9.3218-8.7216 21.495 1.6324 10.683 6.4044 15.375 6.4044 15.375s13.044 14.889 23.913 14.615 12.999-1.357 18.678-6.1819c5.6796-4.8249 8.1959-13.533 8.0949-15.469l-5e-3 -0.2794s-4.6538 1.1399-8.6721 0.73397c0 0 2.5585-2.1056 2.0897-3.846z"/>
  <path d="m281.17 128.36s3.9492-6.9899 4.9016-8.4241c0 0 17.963 16.966 27.166 23.144 0 0 0.47152 0.49954 33.668-2.0151l3.3628-0.10798 0.74082 13.574-2.6463 0.22505s-5.0195-0.0607-10.949-0.43927c-5.9293-0.37854-21.271-0.66395-21.271-0.66395s-4.1742 0.31138-7.0964-2.0299c-2.9221-2.3413-8.4141-6.2762-12.332-9.7508-3.9178-3.4746-15.189-12.554-15.189-12.554l-0.60255-0.52637z"/>
 </g>
 <g transform="matrix(.48489 .057375 -.057375 .48489 81.32 101.3)">
  <rect x="115.9" y="67.341" width="15.075" height="15.075" fill="#01de86"/>
  <rect transform="matrix(1 0 -.70711 .70711 0 0)" x="183.25" y="88.822" width="15.075" height="6.4126" fill="#01a865"/>
  <rect transform="matrix(0 -1 -.70711 .70711 0 0)" x="-213.4" y="-191.68" width="15.075" height="6.4472" fill="#01a865"/>
 </g>
 <g transform="matrix(.25754 -.26744 .26744 .25754 200.71 341.81)">
  <ellipse transform="matrix(.99365 -.11248 .073409 .9973 0 0)" cx="33.377" cy="37.418" rx="18.024" ry="18.108" fill="#01a865"/>
  <g transform="matrix(.99174 -.11227 .073608 1 -6.1622 -1.5794)" clip-path="url(#clipPath2629-0)" fill="#017a49">
   <rect transform="rotate(-90)" x="-23.597" y="42.933" width=".83656" height="5.0865" ry="0"/>
   <rect transform="rotate(-90)" x="-26.281" y="46.837" width=".83656" height="5.0865" ry="0"/>
   <rect transform="rotate(-90)" x="-29.985" y="50.219" width=".83656" height="5.0865" ry="0"/>
   <rect transform="rotate(-90)" x="-34.375" y="52.391" width=".83656" height="5.0865" ry="0"/>
   <rect transform="rotate(-90)" x="-39.608" y="53.39" width=".83656" height="5.0865" ry="0"/>
   <rect transform="rotate(-90)" x="-44.393" y="52.858" width=".83656" height="5.0865" ry="0"/>
   <rect transform="rotate(-90)" x="-48.775" y="51.178" width=".83656" height="5.0865" ry="0"/>
   <rect transform="rotate(-90)" x="-52.722" y="48.618" width=".83656" height="5.0865" ry="0"/>
   <rect transform="rotate(-90)" x="-55.787" y="44.566" width=".83656" height="5.0865" ry="0"/>
  </g>
  <ellipse transform="matrix(.99365 -.11248 .073409 .9973 0 0)" cx="30.181" cy="37.418" rx="18.024" ry="18.108" fill="#01de86"/>
  <ellipse transform="matrix(.99365 -.11248 .073409 .9973 0 0)" cx="30.181" cy="37.418" rx="15.402" ry="15.715" fill="#01cb7b"/>
  <g transform="matrix(.99174 -.11227 .073608 1 -236.66 -34.06)" fill="#01a865">
   <rect transform="rotate(-23.652)" x="205.65" y="186.21" width="1.9027" height="21.557" ry=".86569"/>
   <rect transform="matrix(-.916 -.40119 -.40119 .916 0 0)" x="-278.56" y="-25.893" width="1.9027" height="21.557" ry=".86569"/>
   <rect transform="matrix(.00030815 -1 -1 -.0006165 0 0)" x="-97.066" y="-271.99" width="1.9027" height="15.241" ry=".95133"/>
   <rect transform="matrix(.00038343 -1 -1 -.00049546 0 0)" x="-100.51" y="-273.91" width="1.9027" height="18.964" ry=".95133"/>
  </g>
  <path transform="matrix(.85352 -.57471 .54329 .87948 -18.378 15.182)" d="m47.878 42.709a15.155 15.155 0 0 1-15.155 15.155 15.155 15.155 0 0 1-15.155-15.155 15.155 15.155 0 0 1 15.155-15.155 15.155 15.155 0 0 1 15.155 15.155z" clip-path="url(#clipath_lpe_path-effect4212)" fill="#017a49"/>
 </g>
 <path d="m204.01 118.11s-4.2632-2.7796-6.8567-2.4431l-2.8996-0.25415s-0.2987-3e-3 -1.2988-0.65467c-1.0001-0.6518-2.2153-1.4179-2.2153-1.4179s-1.6204-1.0668-3.3605-1.2137c0 0-1.4036-0.44835-1.0218-1.1202 0.3818-0.67181 1.246-1.4534 6.5334-0.341 0 0 2.5794 0.86444 1.6311-0.21518-0.94196-1.0725-0.569-0.81052-3.434-1.752-2.757-0.90593-3.9009-1.1954-6.5252-1.4207 0 0-1.8129-0.30232-3.139-0.53086 0 0-0.36657-0.17818-0.57301-1.0266 0.0577-1.1305 0.51254-1.4655 0.51254-1.4655 0.898-0.3021 1.8322-0.6792 2.8188-0.73778 2.4242-0.14394 5.5284-0.3201 11.379 2.4327 5.8508 2.7528 7.9519 5.6697 7.9519 5.6697l2.3518 2.3623-0.70657 2.3382z" fill="#e8d2ae"/>
 <path transform="translate(-78.761 -5.5208)" d="m279.13 258.69s4.6184-13.423 5.7175-19.977c0 0 0.74435-2.3618 0.31498-5.2005-0.42933-2.8387-1.4932-5.217 0.62469-8.8075 2.1179-3.5904 4.173-5.7298 5.408-11.83l3.179-12.492s0.34645-1.7916 2.7186-1.9246c2.3722-0.13296 11.462-0.97451 29.697-2.0138 0 0 11.936-0.46271 22.194-2.1269l12.498-1.892 10.14-10.088 1.904-3.5378 10.406 0.39083 5.742-0.38195 1.1264 2.797 1.3794 5.9246-0.7765 0.34879s-2.7572 1.9032-12.688-0.26651l-1.4708-0.23264s-1.9689 10.392-11.102 27.931l-4.7689-3.4595-1.5684-4.9555-29.102 3.2367-28.165-2.4804-2.2727 23.211-7.2952 21.456-1.4114 12.852-6.0853-4.0081z" clip-path="url(#clipPath5516)" fill="#431766"/>
 <path d="m310.52 187.82s-2.8034 0.41096-4.6685 1.1941c0 0-0.0625-6.1348-2.4941-12.952" fill="none" stroke="#2e0d48" stroke-width=".465"/>
 <path d="m271.98 149.13s-0.46247 0.16868 0.53787 1.69c0.94816 1.442 7.5927 11.543 11.411 18.881 0.21012 0.40382 1.1863 0.77403 1.3779 1.1592l1.1792-1.5017-12.577-20.809z" fill="#22afec"/>
 <g transform="translate(-78.761 -5.5208)" fill="#0682d9">
  <path d="m362.01 148.31s-0.27276-0.50662 0.15182-0.66483c0.42458-0.1582 1.3908 1.5775 1.3908 1.5775s10.783 18.777 30.828 15.202c0 0 1.2664-0.3234 0.82141 0.7396-0.44501 1.063-1.0462 1.7075 0.31242 1.9579 1.3587 0.2504 2.5951-0.49478 2.5951-0.49478s4.6768-3.2822 6.7468-5.1793l0.7984 0.45821-4.2745 16.867-21.577 7.8687-6.1493-1.8033-2.3208-5.3824-0.93576-6.1805-7.9568-18.4z" clip-path="url(#clipPath5332)"/>
  <path d="m359.35 132.42-1.8975 6.7677s-3.701-0.30491-6.6948 2.7429c0 0 2.6719 0.83106 3.0138 1.298 0.34187 0.46699-0.50231 0.89965-1.0609 1.5871-0.55854 0.68745-4.0773 3.8084-4.4205 8.8633l-0.6587 2.6534-2.0156-2.5932 3.6536-17.768 5.0155-6.3325 6.6085 0.15886z" clip-path="url(#clipPath5353)"/>
 </g>
 <g transform="matrix(.40932 -.043551 .043551 .40932 171.39 94.717)">
  <ellipse transform="matrix(.99365 -.11248 .073409 .9973 0 0)" cx="33.377" cy="37.418" rx="18.024" ry="18.108" fill="#01a865"/>
  <g transform="matrix(.99174 -.11227 .073608 1 -6.1622 -1.5794)" clip-path="url(#clipPath2629-9)" fill="#017a49">
   <rect transform="rotate(-90)" x="-23.597" y="42.933" width=".83656" height="5.0865" ry="0"/>
   <rect transform="rotate(-90)" x="-26.281" y="46.837" width=".83656" height="5.0865" ry="0"/>
   <rect transform="rotate(-90)" x="-29.985" y="50.219" width=".83656" height="5.0865" ry="0"/>
   <rect transform="rotate(-90)" x="-34.375" y="52.391" width=".83656" height="5.0865" ry="0"/>
   <rect transform="rotate(-90)" x="-39.608" y="53.39" width=".83656" height="5.0865" ry="0"/>
   <rect transform="rotate(-90)" x="-44.393" y="52.858" width=".83656" height="5.0865" ry="0"/>
   <rect transform="rotate(-90)" x="-48.775" y="51.178" width=".83656" height="5.0865" ry="0"/>
   <rect transform="rotate(-90)" x="-52.722" y="48.618" width=".83656" height="5.0865" ry="0"/>
   <rect transform="rotate(-90)" x="-55.787" y="44.566" width=".83656" height="5.0865" ry="0"/>
  </g>
  <ellipse transform="matrix(.99365 -.11248 .073409 .9973 0 0)" cx="30.181" cy="37.418" rx="18.024" ry="18.108" fill="#01de86"/>
  <ellipse transform="matrix(.99365 -.11248 .073409 .9973 0 0)" cx="30.181" cy="37.418" rx="15.402" ry="15.715" fill="#01cb7b"/>
  <g transform="matrix(.99174 -.11227 .073608 1 -236.66 -34.06)" fill="#01a865">
   <rect transform="rotate(-23.652)" x="205.65" y="186.21" width="1.9027" height="21.557" ry=".86569"/>
   <rect transform="matrix(-.916 -.40119 -.40119 .916 0 0)" x="-278.56" y="-25.893" width="1.9027" height="21.557" ry=".86569"/>
   <rect transform="matrix(.00030815 -1 -1 -.0006165 0 0)" x="-97.066" y="-271.99" width="1.9027" height="15.241" ry=".95133"/>
   <rect transform="matrix(.00038343 -1 -1 -.00049546 0 0)" x="-100.51" y="-273.91" width="1.9027" height="18.964" ry=".95133"/>
  </g>
 </g>
 <path d="m204.01 118.11s-4.2632-2.7796-6.8567-2.4431l-2.8996-0.25415s-0.2987-3e-3 -1.2988-0.65467c-1.0001-0.6518-2.2153-1.4179-2.2153-1.4179s-1.6204-1.0668-3.3605-1.2137c0 0-1.4036-0.44835-1.0218-1.1202 0.3818-0.67181 1.246-1.4534 6.5334-0.341 0 0 3.1116 1.001 2.1633-0.0786 1.932 1.4146 3.1545-0.0497 8.459 1.0322l2.3518 2.3623-0.70657 2.3382z" fill="#e8d2ae"/>
 <path d="m271.93 206.04s-2.7054 3.6697-1.9665 16.705c0 0 0.48808 7.2748 1.0433 8.5157 0 0 1.1979 1.7073 0.80042-2.7944-0.39749-4.5017 0.0428-5.7977 0.0428-5.7977s0.89818 1.7285 2.0562 7.8299c0 0 0.25341 0.72845 0.6065 0.44272 0.35306-0.28573 0.36356 0.0702 0.3629-1.3307 0-1.4009-0.70281-5.2135-1.2056-7.949l0.13952-1.2701 0.39761 0.57627s1.0379 3.6948 4.5525 5.7847c0 0 0.5433 0.59781 1.1873 0.18911s-1.5319-2.3514-1.5319-2.3514-2.7442-2.8594-2.3824-4.036c0 0 2.4794 2.1771 3.8378 2.3614 1.3583 0.18431 0.82439-0.84139 0.17719-1.3802-0.64717-0.53885-4.1971-3.7001-4.5327-5.8688-0.33555-2.1687 0.24897-8.4058 0.24897-8.4058l-2.2032-0.98833z" fill="#e9b27b"/>
 <path d="m271.6 203.81s-0.87114 1.4937-1.1163 1.6491 5.6062 1.8789 8.608 3.2732l0.67299-2.5199-2.529-2.7031z" fill="#fff"/>
 <path d="m283.25 142.79s6.9898 14.018 12.312 25.656c0 0 1.6356 2.7499 0.12842 6.2928-1.5072 3.5429-6.2355 13.824-15.277 31.863l-9.5622-3.0285s8.9667-16.085 13.886-26.424c0 0 1.5895-2.8474 1.1157-4.4387-0.47382-1.5912-2.3065-5.8825-7.6892-14.091l-5.919-9.61" fill="#10a3e8"/>
 <path d="m278.24 124.07 0.0444-1.7758-0.34128-10.116 0.22952-9.633-5.8561-6.4103-4.427 0.97194-0.53261 0.6073s-2.4253 7.338-5.0735 8.806-3.4474 0.9249-6.458 0.81492c0 0-1.2228-0.0586-0.14121 0.66681 1.0816 0.72539 2.3644 1.621 2.3644 1.621s0.49152 0.0512-0.18965 2.5823-0.67334 5.4422-0.67334 5.4422-0.28607 1.0251 1.4189 1.9681 1.3876 1.2414 6.489 3.6628c0 0 1.701 0.45164 1.9343 2.0295 0.23328 1.5779 0.56753 4.3453 1.1131 5.7838" fill="#e9b27b"/>
 <path d="m275.6 85.477c-0.86522 0.157-2.3091 1.0387-3.5669 3.4134 0 0-0.74284 1.2152-0.72604 3.8396 0 0-0.60079 0.39068-0.92139-0.11782-0.32059-0.5085-1.813-2.0156-0.8718-4.9532 0 0 0.78505-1.4251-0.91879-0.5333-1.7038 0.89184-2.444 4.8578-2.1218 9.3266 0 0-0.2201 0.97936 2.4272 1.7575 2.6473 0.77815 5.657 2.2841 5.657 2.2841s0.35452 0.10424-0.17052 0.86713c-0.52501 0.76289-2.8886 3.2855-3.6985 6.3035 0 0-0.40862 0.47547 0.48265 0.88935l1.2506 0.72657s0.25578 0.24615 0.78238-0.62735 1.2774-1.1379 1.2774-1.1379 2.0753-0.7787 2.4469 1.3741c0.37158 2.1528-0.24495 3.5646-0.24495 3.5646s-0.29411 1.4673-1.555 1.3064c-1.2608-0.16092-2.3255 0.43759-2.4608-0.4532 0 0-0.25768-0.52821-0.33642 0.16019-0.0788 0.68839-0.2445 3.0722 2.2629 5.8534s4.4462 3.0045 4.4462 3.0045l2.9941-7.5473c1.8353-2.6685 4.3997-6.5438 4.3997-6.5438s1.6369-1.7229 1.5865-4.6819l-0.17984-0.47956 1.3043-0.70642 1.1136-0.0284s0.4367-0.16044 0.22429-0.77308-0.97959-0.68135-1.2924-0.31626c-0.31287 0.3651-0.97515 0.56173-0.97515 0.56173l-0.0873-0.34934 0.41701-0.46044 0.10128-0.41651 0.23824-0.19275 0.1421-0.43357 0.0961-0.43408-0.22842-0.20929-0.25217-0.03359s-0.0784-0.0965-0.27853 0-0.22789 0.11679-0.22789 0.11679l-0.43719 0.4625-0.10285 0.65681-0.0119 0.27131v5.3e-4l-0.0842 0.21238-0.0164 0.0419-0.54004 0.0475-0.40048-0.44648s-2.7844-1.5073-6.0363-3.3807c-3.252-1.8733-4.0818-2.4531-4.0818-2.4531-0.95575-1.137-0.22675-4.8003 0.70472-5.3183 0 0 0.85892-0.38331 0.59891-0.51673-0.57184-0.29343-2.1942 0.11629-2.6768 2.1071 0 0-1.0225 0.31561-0.65627-1.526 0.36618-1.8416 0.85113-2.3979 2.0332-3.1917 0 0 0.62648-0.54007-0.14968-0.8038-0.097-0.03296-0.47717-0.1201-0.60076-0.09767z" fill="#311112"/>
 <path d="m267.84 99.57-0.36148 0.23141s-0.019 0.2172 0.0352 0.3222c0.0543 0.105 0.34798 0.62438 0.40177 0.72842 0.0538 0.10403 0.16407 0.28847 0.2004 0.37772 0.0363 0.0892 0.0549 0.12579 0.14623 0.32906 0.0914 0.20328 0.18275 0.36777 0.23786 0.45942 0.0551 0.0917 0.0191 0.0737 0.12888 0.18368 0.10994 0.10994 0.22884 0.23852 0.31205 0.23852 0.0832 0 0.38569 0.0227 0.45815-0.0878 0.0725-0.11053-0.22492-0.87794-0.22492-0.87794s-0.25492-0.5304-0.36478-0.71364c-0.10983-0.18324-0.18269-0.31267-0.2935-0.46032-0.11081-0.14764-0.11049-0.20244-0.22077-0.331-0.11028-0.12857-0.32935-0.38655-0.32935-0.38655z"/>
 <path d="m266.73 103.25s0.29038 0.83085 0.0997 1.6657c-0.19066 0.83484-0.61738 1.3618-0.61738 1.3618l-0.65444 1.5162-0.0865 0.19504-0.50337 0.12684-0.30514-0.11213s0.11472-0.58677 0.14872-0.66911c0.034-0.0823 0.94141-3.1865 1.9184-4.0844z"/>
 <path d="m258.07 111.4s2.7047 0.79432 3.2962-0.27461c0 0 0.74703 0.8359-0.36115 1.2231-1.1082 0.38718-2.7786 0.25821-3.2084 0.14537"/>
 <path d="m303.47 201.28 2.2463-1.983-0.15624 0.72728-0.57675-0.0742" fill="none" stroke="#2e0d48" stroke-width=".465"/>
 <path transform="matrix(.51856 -.85504 -.10255 .99473 0 0)" d="m799.2 832.2a69.885 122.47 0 0 1-55.63 119.89" fill="none" stroke="#01de86" stroke-width="1.6949"/>
 <g fill="#fff">
  <path d="m352.16 168.81s1.8902-4.9849 6.0159-4.9109c4.1256 0.0739 7.8605 1.9662 9.7157 3.687 0 0 1.217-8.9941 6.5939-10.339 5.3769-1.3446 11.376 0.80991 14.741 5.5059 3.3647 4.696 4.0837 4.5749 4.0837 4.5749s11.627-0.87861 15.532 1.0126c3.9048 1.8912-8.717 3.4655-15.098 3.2274-6.3812-0.23807-12.353 0.23608-12.353 0.23608s-1.9212-0.0675 0.91961 1.027c0 0 3.4215 0.1566 4.5562 1.0082s0.16788 1.177-9.3797 1.2484c-9.5475 0.0715-28.688-0.50664-38.091-1.0768 0 0-3.7363-0.35644-2.0813-2.5947 0 0 1.2032-1.1797 3.6572-0.36096 0 0 0.67807-2.7078 3.6114-2.4013 0 0 1.2058-0.33852 2.5403 0.69143 0 0 1.6574-0.79103 4.1018 0.0203 0 0 0.55396 0.0764 0.9344-0.55599z"/>
  <path d="m432.61 200.4s20.855 1.9833 40.092 0.26845l0.54509-0.14672s0.82378-0.9125-6.2273-1.0042l-1.5714 0.16031s-0.33239 0.0111-0.44206-0.66315c-0.10967-0.67429-0.52634-1.8894-0.52634-1.8894s-0.904-3.488-4.3006-1.5854c0 0-0.77222 0.53421-0.94673 1.0895 0 0-0.38161 0.37915-0.45612-0.19053-0.0745-0.56968-1.1597-9.3504-4.1463-10.71-2.9866-1.3598-10.966-0.32105-13.528 4.7366 0 0-2.0019 3.2141-2.3798 6.093 0 0-2.3024-1.7292-1.8418 2.916 0 0-5.3456-0.34246-4.2708 0.9255z"/>
  <path d="m420.14 146.31s-3.0099-0.59086-2.7185 0.92725 6.3209 0.94117 12.164 1.022c0 0 5.2191-0.6239 3.9586 0.44726 0 0-3.3204 1.774 4.2045 1.5015 7.5249-0.27254 8.4165-4e-3 8.6728-1.3542 0.2563-1.3505-5.1119-1.9536-5.1119-1.9536s-0.52549-0.31251 0.99346-0.53709c1.5189-0.22458 4.262 0.076 4.8199-1.7447 0.55798-1.8207-1.5043-2.72-3.1738-2.3877 0 0-1.8506-4.0444-3.7874-3.173 0 0-2.6644-3.9203-7.7155-2.3649s-2.9712 7.1099-2.9712 7.1099-3.6783-1.9535-5.6033 1.8249c0 0-3.5527-0.52686-3.7319 0.68251z"/>
 </g>
 <g fill="#01de86">
  <ellipse cx="351.81" cy="208.98" rx="11.502" ry="11.743"/>
  <path d="m386.26 213.04s-8.276 13.352-2.3883 25.136c0 0 2.797 4.5893 6.3774 6.6472 0 0 5.4866-1.3636 8.2272-7.7896s-0.69742-12.288-1.6596-14.003c0 0 2.1006-6.2484-4.1995-12.253 0 0 0.72747-5.1437-1.6906-6.4091-2.4181-1.2654-4.4383 0.39165-4.6667 8.6715z"/>
  <path d="m454.25 227.37s-12.224 2.2321-13.161 13.163c-0.9372 10.931 10.069 13.824 12.168 13.79 2.0994-0.034 13.516-0.0137 15.775-11.413 2.2582-11.4-9.1668-16.71-14.781-15.54z"/>
  <path d="m491.3 180.13s-10.646 21.481-3.1389 30.939c0 0 3.596 5.3185 7.6003 7.8286 0 0 3.0566-0.45168 7.7188-7.4585 2.257-3.392 2.1386-6.8432 1.0625-8.9352 0 0 4.272-14.429-6.1329-25.134 0 0 0.8136-6.2741-1.8907-7.8176s-4.9638 0.47772-5.2192 10.577z"/>
 </g>
 <path d="m308.27 260.53s22.937-17.301 41.909-17.589c18.972-0.28826 25.089 2.6617 44.199 16.722 19.111 14.06 33.867 15.373 50.952 13.458 17.085-1.9152 25.461-11.24 29.359-15.087 3.898-3.8472 10.237-14.088 10.237-14.088s9.4337-14.072 22.124-20.378c12.691-6.3066 19.703-6.1396 19.703-6.1396s0.57377-6.5038-2.5745-8.176c-3.1483-1.6721-13.178 1.3297-14.454 11.623l-0.4794 0.47089s-4.2173-3.4339-7.5685 4.4351c0 0-7.84-2.5216-9.7982 9.0871l-0.18422 0.75419s-6.1145 6.5151-7.6271 9.6096c0 0-7.2548-1.2956-13.033 6.4586-5.7784 7.7542-6.5348 14.823-6.5348 14.823l-0.43711 0.28946s-6.4662-1.6918-17.266 0.76697c-10.8 2.4587-14.018 6.1774-14.018 6.1774s-4.568-0.12417-6.5818-0.46339c0 0-0.14121-8.5063-8.4828-11.94 0 0-5.3683-2.0078-12.41-0.56436 0 0-3.4345-10.01-5.0162-11.379-1.5817-1.3693-5.7628-3.9267-8.8196 1.3701l-0.86426 0.50863s-5.4486-4.7688-9.4969-4.8769c-4.0483-0.10812-5.8012 0.82515-5.8012 0.82515s-6.7604-3.3841-12.688-3.8062c0 0-1.3462-4.8796-5.2653-4.4636 0 0-1.8791 0.0299-4.1363 1.3752l-0.5657-0.0939s-3.2658-5.3072-7.3012-6.2135c-4.0355-0.90636-9.3336-0.93079-11.966 2.5741s-2.2971 7.9387-2.2971 7.9387l-0.77691 0.11469s-6.3112-1.1145-9.1993 1.8394c0 0-1.0547 1.2294-1.0562 3.1326l-0.78883 0.48614-0.43141 0.018s-7.8462-1.4796-9.1131 3.7802c-1.2669 5.2599-1.2158 6.4435-1.2158 6.4435z" fill="#e3deda"/>
 <g fill="#fff">
  <rect transform="rotate(-47.065)" x="189.19" y="495.64" width=".67764" height="5.5372" rx=".087757" ry=".83338"/>
  <rect transform="matrix(-.6582 -.75285 -.71061 .70359 0 0)" x="-502.9" y="-238.31" width=".68671" height="5.5863" rx=".088931" ry=".84077"/>
  <rect transform="rotate(45)" x="498.61" y="-164.15" width=".7537" height="20.277" rx=".12587" ry="0"/>
  <rect transform="rotate(11.565)" x="500.46" y="132.38" width=".77135" height="14.696" rx=".12587" ry="0"/>
  <rect transform="rotate(-48.435)" x="124.16" y="487.42" width=".86563" height="9.7023" rx=".12587" ry="0"/>
  <rect transform="rotate(-48.435)" x="117.83" y="487.17" width=".88819" height="15.645" rx=".12587" ry="0"/>
  <rect transform="matrix(-.70711 .70711 .70711 .70711 0 0)" x="-96.929" y="385.9" width=".75698" height="14.674" rx=".12587" ry="0"/>
  <rect transform="matrix(-.9797 .20048 .20048 .9797 0 0)" x="-298.92" y="264.25" width=".77967" height="12.705" rx="0" ry="0"/>
  <rect transform="matrix(-.80225 -.59698 -.59698 .80225 0 0)" x="-407.96" y="-54.008" width=".78229" height="12.845" rx=".12587" ry="0"/>
 </g>
 <g fill="none" stroke="#01a865" stroke-width=".67525">
  <path d="m40.26 110.31c12.066 10.836 35.687 33.1 34.903 32.396"/>
  <path d="m40.26 110.31 54.511-1.4933"/>
  <path d="m40.26 110.31 7.144-59.46"/>
 </g>
 <circle transform="rotate(.78646)" cx="41.862" cy="109.67" r="6.8406" fill="#01de86"/>
 <path d="m113.07 65.881-65.662-15.026" fill="none" stroke="#01a865" stroke-width=".67525"/>
 <circle transform="rotate(.78646)" cx="48.059" cy="50.438" r="4.1285" fill="#01de86"/>
 <g fill="none" stroke="#01a865" stroke-width=".67525">
  <path d="m75.163 142.71 41.293-19.533"/>
  <path d="m94.771 108.82 35.396-17.5"/>
  <path d="m94.771 108.82 21.685 14.355"/>
  <path d="m94.771 108.82 18.295-42.94"/>
  <path d="m130.17 91.322-17.101-25.441"/>
 </g>
 <circle transform="rotate(.78646)" cx="113.81" cy="64.009" r="4.8251" fill="#01de86"/>
 <path d="m116.46 123.18 13.711-31.855" fill="none" stroke="#01a865" stroke-width=".67525"/>
 <circle transform="rotate(.78646)" cx="118.48" cy="122.06" r="3.6981" fill="#01de86"/>
 <circle transform="rotate(.78646)" cx="131.51" cy="89.536" r="6.1169" fill="#01de86"/>
 <path d="m75.163 142.71 19.608-33.889" fill="none" stroke="#01a865" stroke-width=".67525"/>
 <circle transform="rotate(.78646)" cx="96.23" cy="107.68" r="4.094" fill="#01de86"/>
 <path d="m100.66 229.35-25.492-86.641" fill="none" stroke="#01a865" stroke-width=".67525"/>
 <circle transform="rotate(.78646)" cx="77.457" cy="141.4" r="9.1652" fill="#01de86"/>
 <g fill="none" stroke="#01a865" stroke-width=".67525">
  <path d="m106.03 260.95-5.3735-31.594"/>
  <path d="m50.341 232.5 50.314-3.1519"/>
  <path d="m18.285 291.72 32.056-59.218"/>
  <path d="m47.812 273.31 2.5294-40.805"/>
 </g>
 <circle transform="rotate(.78646)" cx="53.537" cy="231.43" r="4.8251" fill="#01de86"/>
 <g fill="none" stroke="#01a865" stroke-width=".67525">
  <path d="m47.812 273.31 58.217-12.363"/>
  <path d="m18.285 291.72 29.527-18.413"/>
  <path d="m43.962 308.4 41.097-7.3867"/>
  <path d="m47.812 273.31 37.247 27.706"/>
 </g>
 <circle transform="rotate(.78646)" cx="51.717" cy="273.16" r="2.8869" fill="#01de86"/>
 <path d="m106.03 260.95-20.97 40.069" fill="none" stroke="#01a865" stroke-width=".67525"/>
 <circle transform="rotate(.78646)" cx="88.968" cy="300.04" r="3.6981" fill="#01de86"/>
 <circle transform="rotate(.78646)" cx="109.47" cy="259" r="4.2795" fill="#01de86"/>
 <path d="m137.33 269.31-36.675-39.961" fill="none" stroke="#01a865" stroke-width=".67525"/>
 <path d="m137.33 269.31 27.239 27.487" fill="none" stroke="#01a865" stroke-width=".67525"/>
 <circle transform="rotate(.78646)" cx="168.89" cy="293.65" r="6.9681" fill="#01de86"/>
 <path d="m113.16 322.89 24.172-53.574" fill="none" stroke="#01a865" stroke-width=".67525"/>
 <circle transform="rotate(.78646)" cx="118.34" cy="321.15" r="4.8251" fill="#01de86"/>
 <circle transform="rotate(.78646)" cx="141.26" cy="267.71" r="3.5545" fill="#01de86"/>
 <path d="m100.66 229.35 63.583-49.102" fill="none" stroke="#01a865" stroke-width=".67525"/>
 <circle transform="rotate(.78646)" cx="103.12" cy="227.38" r="6.8406" fill="#01de86"/>
 <path d="m164.24 180.25 17.714-11.082" fill="none" stroke="#01a865" stroke-width=".67525"/>
 <circle transform="rotate(.78646)" cx="184.33" cy="166.65" r="3.0775" fill="#01de86"/>
 <path d="m164.24 180.25 45.745 4.3526" fill="none" stroke="#01a865" stroke-width=".67525"/>
 <circle transform="rotate(.78646)" cx="212.3" cy="181.94" r="2.6657" fill="#01de86"/>
 <path d="m137.66 180.33 26.581-0.0827" fill="none" stroke="#01a865" stroke-width=".67525"/>
 <circle transform="rotate(.78646)" cx="140.1" cy="178.43" r="1.5091" fill="#01de86"/>
 <path d="m150.05 161.79 14.187 18.455" fill="none" stroke="#01a865" stroke-width=".67525"/>
 <circle transform="rotate(.78646)" cx="152.63" cy="159.94" r="2.6657" fill="#01de86"/>
 <path d="m180 201.49-15.765-21.241" fill="none" stroke="#01a865" stroke-width=".67525"/>
 <circle transform="rotate(.78646)" cx="167.51" cy="177.87" r="4.2602" fill="#01de86"/>
 <circle transform="rotate(.78646)" cx="182.86" cy="199.27" r="1.6024" fill="#01de86"/>
 <path d="m18.285 291.72 25.677 16.679" fill="none" stroke="#01a865" stroke-width=".67525"/>
 <circle transform="rotate(.78646)" cx="22.894" cy="291.35" r="6.3537" fill="#01de86"/>
 <circle transform="rotate(.78646)" cx="48.462" cy="307.86" r="2.8869" fill="#01de86"/>
 <g transform="matrix(.59711 .12808 -.12808 .59711 5.8691 211.17)">
  <ellipse transform="matrix(.99365 -.11248 .073409 .9973 0 0)" cx="33.377" cy="37.418" rx="18.024" ry="18.108" fill="#01a865"/>
  <g transform="matrix(.99174 -.11227 .073608 1 -6.1622 -1.5794)" clip-path="url(#clipPath2629)" fill="#017a49">
   <rect transform="rotate(-90)" x="-23.597" y="42.933" width=".83656" height="5.0865" ry="0"/>
   <rect transform="rotate(-90)" x="-26.281" y="46.837" width=".83656" height="5.0865" ry="0"/>
   <rect transform="rotate(-90)" x="-29.985" y="50.219" width=".83656" height="5.0865" ry="0"/>
   <rect transform="rotate(-90)" x="-34.375" y="52.391" width=".83656" height="5.0865" ry="0"/>
   <rect transform="rotate(-90)" x="-39.608" y="53.39" width=".83656" height="5.0865" ry="0"/>
   <rect transform="rotate(-90)" x="-44.393" y="52.858" width=".83656" height="5.0865" ry="0"/>
   <rect transform="rotate(-90)" x="-48.775" y="51.178" width=".83656" height="5.0865" ry="0"/>
   <rect transform="rotate(-90)" x="-52.722" y="48.618" width=".83656" height="5.0865" ry="0"/>
   <rect transform="rotate(-90)" x="-55.787" y="44.566" width=".83656" height="5.0865" ry="0"/>
  </g>
  <ellipse transform="matrix(.99365 -.11248 .073409 .9973 0 0)" cx="30.181" cy="37.418" rx="18.024" ry="18.108" fill="#01de86"/>
  <ellipse transform="matrix(.99365 -.11248 .073409 .9973 0 0)" cx="30.181" cy="37.418" rx="15.402" ry="15.715" fill="#01cb7b"/>
  <g transform="matrix(.99174 -.11227 .073608 1 -236.66 -34.06)" fill="#01a865">
   <rect transform="rotate(-23.652)" x="205.65" y="186.21" width="1.9027" height="21.557" ry=".86569"/>
   <rect transform="matrix(-.916 -.40119 -.40119 .916 0 0)" x="-278.56" y="-25.893" width="1.9027" height="21.557" ry=".86569"/>
   <rect transform="matrix(.00030815 -1 -1 -.0006165 0 0)" x="-97.066" y="-271.99" width="1.9027" height="15.241" ry=".95133"/>
   <rect transform="matrix(.00038343 -1 -1 -.00049546 0 0)" x="-100.51" y="-273.91" width="1.9027" height="18.964" ry=".95133"/>
  </g>
  <path transform="matrix(.85352 -.57471 .54329 .87948 -18.378 15.182)" d="m47.878 42.709a15.155 15.155 0 0 1-15.155 15.155 15.155 15.155 0 0 1-15.155-15.155 15.155 15.155 0 0 1 15.155-15.155 15.155 15.155 0 0 1 15.155 15.155z" clip-path="url(#clipPath2728)" fill="#017a49"/>
 </g>
 <g transform="matrix(-.31976 -.13015 .13015 -.31976 182.37 44.767)">
  <ellipse transform="matrix(.99365 -.11248 .073409 .9973 0 0)" cx="33.377" cy="37.418" rx="18.024" ry="18.108" fill="#01a865"/>
  <g transform="matrix(.99174 -.11227 .073608 1 -6.1622 -1.5794)" clip-path="url(#clipPath2629-5)" fill="#017a49">
   <rect transform="rotate(-90)" x="-23.597" y="42.933" width=".83656" height="5.0865" ry="0"/>
   <rect transform="rotate(-90)" x="-26.281" y="46.837" width=".83656" height="5.0865" ry="0"/>
   <rect transform="rotate(-90)" x="-29.985" y="50.219" width=".83656" height="5.0865" ry="0"/>
   <rect transform="rotate(-90)" x="-34.375" y="52.391" width=".83656" height="5.0865" ry="0"/>
   <rect transform="rotate(-90)" x="-39.608" y="53.39" width=".83656" height="5.0865" ry="0"/>
   <rect transform="rotate(-90)" x="-44.393" y="52.858" width=".83656" height="5.0865" ry="0"/>
   <rect transform="rotate(-90)" x="-48.775" y="51.178" width=".83656" height="5.0865" ry="0"/>
   <rect transform="rotate(-90)" x="-52.722" y="48.618" width=".83656" height="5.0865" ry="0"/>
   <rect transform="rotate(-90)" x="-55.787" y="44.566" width=".83656" height="5.0865" ry="0"/>
  </g>
  <ellipse transform="matrix(.99365 -.11248 .073409 .9973 0 0)" cx="30.181" cy="37.418" rx="18.024" ry="18.108" fill="#01de86"/>
  <ellipse transform="matrix(.99365 -.11248 .073409 .9973 0 0)" cx="30.181" cy="37.418" rx="15.402" ry="15.715" fill="#01cb7b"/>
  <g transform="matrix(.99174 -.11227 .073608 1 -236.66 -34.06)" fill="#01a865">
   <rect transform="rotate(-23.652)" x="205.65" y="186.21" width="1.9027" height="21.557" ry=".86569"/>
   <rect transform="matrix(-.916 -.40119 -.40119 .916 0 0)" x="-278.56" y="-25.893" width="1.9027" height="21.557" ry=".86569"/>
   <rect transform="matrix(3.0815e-4,-1,-1,-6.165e-4,0,0)" x="-97.066" y="-271.99" width="1.9027" height="15.241" ry=".95133"/>
   <rect transform="matrix(3.8343e-4,-1,-1,-4.9546e-4,0,0)" x="-100.51" y="-273.91" width="1.9027" height="18.964" ry=".95133"/>
  </g>
  <path transform="matrix(.85352 -.57471 .54329 .87948 -18.378 15.182)" d="m47.878 42.709a15.155 15.155 0 0 1-15.155 15.155 15.155 15.155 0 0 1-15.155-15.155 15.155 15.155 0 0 1 15.155-15.155 15.155 15.155 0 0 1 15.155 15.155z" clip-path="url(#clipath_lpe_path-effect4116)" fill="#017a49"/>
 </g>
 <circle cx="47.901" cy="134.3" r="3.0913" fill="#b0bebc"/>
 <circle cx="187.4" cy="85.078" r="1.9324" fill="#e9c3b4"/>
 <circle cx="150.67" cy="61.533" r="1.9324" fill="#fff"/>
 <g transform="matrix(.044112 .28976 -.28976 .044112 134.81 238.79)">
  <rect x="115.9" y="67.341" width="15.075" height="15.075" fill="#01de86"/>
  <rect transform="matrix(1 0 -.70711 .70711 0 0)" x="183.25" y="88.822" width="15.075" height="6.4126" fill="#01a865"/>
  <rect transform="matrix(0 -1 -.70711 .70711 0 0)" x="-213.4" y="-191.68" width="15.075" height="6.4472" fill="#01a865"/>
 </g>
 <g fill="#fff">
  <rect x="351.2" y="197.24" width=".64766" height="45.929" rx=".16323" ry="4.4545"/>
  <rect x="389.84" y="226.83" width=".84429" height="29.792" rx=".12273" ry="6.663"/>
  <rect x="454.26" y="227.5" width=".97192" height="43.588" rx=".12587" ry="6.5603"/>
  <rect x="495.6" y="192.15" width=".86885" height="39.008" rx=".11252" ry="5.8709"/>
 </g>
 <path d="m526.75 217.43s-20.57 1.4677-36.021 19.451-10.715 20.98-32.28 32.897c0 0-25.146 10.261-49.749-1.5535 0 0-9.572-4.1467-15.938-9.7933-6.3663-5.6466-22.07-15.536-33.05-15.361-10.98 0.17494-21.181-2.7269-51.212 17.285" fill="none" stroke="#fff" stroke-width=".565"/>
 <circle cx="286.64" cy="257.17" r="1.0492" fill="#b0bebc"/>
 <circle cx="316.83" cy="288.98" r="1.8601" fill="#b0bebc"/>
 <circle cx="68.734" cy="200.55" r="5.9077" fill="#fff"/>
 <circle cx="149.67" cy="248.66" r="3.4882" fill="#fff"/>
 <path d="m526.75 217.43s-16.354 1.4005-29.172 12.41c-12.818 11.009-22.14 35.997-43.321 41.25-21.181 5.2527-39.02 3.6794-57.562-9.7865-18.543-13.466-26.836-19.135-44.85-18.132-18.014 1.0028-23.054 4.4091-43.343 17.184" fill="none" stroke="#fff" stroke-width=".52917"/>
</svg>
