<svg xmlns="http://www.w3.org/2000/svg" xmlns:xlink="http://www.w3.org/1999/xlink" width="2000" height="1500" viewBox="0 0 529.17 396.88" xmlns:v="https://vecta.io/nano"><style><![CDATA[.B{fill:#01de86}.C{fill:none}.D{stroke:#01a865}.E{stroke-width:.675}.F{fill:#01a865}.G{fill:#fff}.H{fill:#017a49}.I{fill:#10a3e8}.J{fill:#01cb7b}.K{fill:#e9b27b}.L{stroke-width:1.695}.M{stroke-width:.465}]]></style><defs><clipPath id="A"><circle cx="39.488" cy="39.488" r="18.059" class="F"/></clipPath><clipPath id="B"><path d="M12.568 22.554h40.311v40.311H12.568zm49.197 20.234A21.168 17.438 0 0 0 40.597 25.35a21.168 17.438 0 0 0-21.168 17.438 21.168 17.438 0 0 0 21.168 17.438 21.168 17.438 0 0 0 21.168-17.438z" class="B"/></clipPath><clipPath id="C"><circle cx="39.488" cy="39.488" r="18.059" class="F"/></clipPath><clipPath id="D"><path d="M12.568 22.554h40.311v40.311H12.568zm49.197 20.234A21.168 17.438 0 0 0 40.597 25.35a21.168 17.438 0 0 0-21.168 17.438 21.168 17.438 0 0 0 21.168 17.438 21.168 17.438 0 0 0 21.168-17.438z" class="B"/></clipPath><clipPath id="E"><circle cx="39.488" cy="39.488" r="18.059" class="F"/></clipPath><clipPath id="F"><path d="M12.568 22.554h40.311v40.311H12.568zm49.197 20.234A21.168 17.438 0 0 0 40.597 25.35a21.168 17.438 0 0 0-21.168 17.438 21.168 17.438 0 0 0 21.168 17.438 21.168 17.438 0 0 0 21.168-17.438z" class="B"/></clipPath><clipPath id="G"><path d="M398.68 157.22s-.986-.056-2.535 1.23c0 0-9.056 3.092-14.77-.919 0 0-2.223-.643-6.646-8.179s-6.517-11.197-16.338-18.657c0 0-.796-.723-1.493.083 0 0-10.582 9.322-8.722 21.495 1.632 10.683 6.404 15.375 6.404 15.375s13.044 14.889 23.913 14.615 12.999-1.357 18.678-6.182 8.196-13.533 8.095-15.469l-.005-.279s-4.654 1.14-8.672.734c0 0 2.558-2.106 2.09-3.846z" class="I"/></clipPath><clipPath id="H"><path d="M398.68 157.22s-.986-.056-2.535 1.23c0 0-9.056 3.092-14.77-.919 0 0-2.223-.643-6.646-8.179s-6.517-11.197-16.338-18.657c0 0-.796-.723-1.493.083 0 0-10.582 9.322-8.722 21.495 1.632 10.683 6.404 15.375 6.404 15.375s13.044 14.889 23.913 14.615 12.999-1.357 18.678-6.182 8.196-13.533 8.095-15.469l-.005-.279s-4.654 1.14-8.672.734c0 0 2.558-2.106 2.09-3.846z" class="I"/></clipPath><clipPath id="I"><circle cx="39.488" cy="39.488" r="18.059" class="F"/></clipPath><clipPath id="J"><path d="M357.23 183.52l1.212 2.918s.488.897-.602.936l-59.297 1.903s-8.409-1.272-10.241 4.226c0 0-2.33 6.111-8.269 32.079s-6.818 29.554-8.856 34.857c0 0-.298 1.019 1.262.208s6.034-3.152 16.569-.14l.59-.613s-1.207-4.54.247-12.541c0 0 .848-3.613 2.445-6.276s1.215-6.893 1.215-6.893.227-6.762 3.334-19.051c0 0 2.35-8.646 3.038-10.235 0 0 55.515-.157 63.317-1.29 0 0 3.772 13.769 7.709 25.526 0 0 .456 2.673 10.425 19.897 0 0 4.417 7.276 8.479 12.533 0 0 14.333 18.682 20.435 25.661 0 0 7.217 8.012 8.849 11.606 0 0 .587.891 1.141-.677s2.777-8.713 9.104-9.206l1.385-.074s1.052.136-.219-1.016-6.495-6.323-8.986-10.388-8.306-12.991-8.306-12.991l-12.787-18.149s-7.9-8.33-10.962-18.827-4.81-19.378-4.956-22.953c0 0 4.384-1.143 4.993-14.255.435-9.372-.9-10.266-.9-10.266l-3.551-1.567-22.571-1.708-3.87 3.66z" fill="#5b2181"/></clipPath><path id="K" d="M42.933 23.597v-.837h5.087v.837z"/><path id="L" d="m47.878 42.709a15.155 15.155 0 0 1-15.155 15.155 15.155 15.155 0 0 1-15.155-15.155 15.155 15.155 0 0 1 15.155-15.155 15.155 15.155 0 0 1 15.155 15.155z"/></defs><path d="M215.54 39.819s-60.453-4.616-89.306 32.839c0 0-11.501 12.388-17.464 38.207s-32.355 49.703-55.959 74.892-48.039 57.617-25.414 105.36 101.56 29.597 139.44 17.653c37.888-11.944 109.24-44.856 183.85-9.959 74.602 34.897 124.66 9.024 140.68-1.44s47.8-39.157 34.886-94.711c0 0-21.146-64.912-123.95-73.434 0 0-21.787-1.214-48.316.646s-60.256-9.835-79.891-42.813-37.872-44.205-58.563-47.242z" fill="#f6efeb"/><path d="M325.75 72.579s-8.074-2.22-12.849 8.472-37.876 84.058-49.227 211.8c0 0-3.796 47.953 6.762 44.702l-3.524 2.163-5.293-1.639-2.782-4.964s-1.445-3.467-1.528-3.854-6.693-23.286 1.409-83.445c0 0 6.283-40.68 8.026-45.837s5.16-23.941 5.16-23.941l2.342-9.313 11.64-39.018s6.486-19.326 10.748-28.297 9.806-22.702 20.099-30.015c0 0 7.23-2.361 9.017 3.183z" fill="#e3deda"/><ellipse transform="matrix(.51856 -.85504 -.10255 .99473 0 0)" cx="729.32" cy="832.2" rx="69.885" ry="122.47" stroke="#01de86" class="C L"/><path d="M195.039 253.189s-.642 5.639-3.461 14.307l9.06.888s1.978-9.269 4.168-15.124l-6.793-1.73z" class="K"/><path d="M190.259 271.379s-.399-.115-.719.359-3.181 5.018-5.832 6.831-6.362 4.004-10.666 6.263c0 0-.507.072-.233 1.378l.13.374s.276.115 1.256-.307 8.14-3.309 17.776-6.296l.059-.559s.058-.806.963-.757.691.586.691.586l.169.045.395-.092 4.517-1.618s.613-4.448 1.433-6.946-9.938.738-9.938.738z"/><path d="M201.019 266.789l-.826 3.851s-1.849.202-2.865 1.13-3.379 1.344-3.961 1.008-3.112-1.4-3.112-1.4l1.569-4.602s3.002 1.708 9.195.013z" class="G"/><path d="M278.47 178l1.212 2.918s.488.897-.602.936l-59.297 1.903s-8.409-1.272-10.241 4.226c0 0-2.33 6.111-8.269 32.079s-6.818 29.554-8.856 34.857c0 0-.298 1.019 1.262.208s6.034-3.152 16.569-.14l.59-.613s-1.207-4.54.247-12.541c0 0 .848-3.613 2.445-6.276s1.215-6.893 1.215-6.893.227-6.762 3.334-19.051c0 0 2.35-8.646 3.038-10.235 0 0 55.515-.157 63.317-1.29 0 0 3.772 13.769 7.709 25.526 0 0 .456 2.673 10.425 19.897 0 0 1.879 3.812 5.941 9.069l5.648-22.61s-1.025-.761-3.454-7.986c-3.485-10.364-4.81-19.378-4.956-22.953 0 0 4.384-1.143 4.993-14.255.435-9.372-.9-10.266-.9-10.266l-3.551-1.567-22.571-1.708-3.87 3.66z" fill="#5b2181"/><path d="M269.08 148.51c1.714 10.151 2.328 12.122 5.467 20.738s4.669 8.319 4.669 8.319c4.012.845 8.51-1.429 8.51-1.429l-.739-5.514-2.734-5.608-4.824-7.158-8.255-10.454z" class="G"/><path d="M268.69 132.53s-.994.252-.23 3.111l-4.332 13.449s-2.726 11.967.126 21.743l1.786 4.559 4.898 3.391.664-4.321s.162-.613-.236-1.447-5.444-10.733-4.327-22.373c0 0 .051-2.296.804-5.59l3.243-8.223.425-1.394-1.583-2.442-1.047-.756z" fill="#311112"/><path d="M279.26 124.98l-.743-1.166s-9.943 7.083-10.939 7.307c0 0 2.105 2.28 2.946 4.738l.978-.424z" class="G"/><g class="I"><path d="M319.919 151.699s-.986-.056-2.535 1.23c0 0-9.056 3.092-14.77-.919 0 0-2.223-.643-6.646-8.179s-6.517-11.197-16.338-18.657c0 0-.796-.723-1.493.083 0 0-10.582 9.322-8.722 21.495 1.632 10.683 6.404 15.375 6.404 15.375s13.044 14.889 23.913 14.615 12.999-1.357 18.678-6.182 8.196-13.533 8.095-15.469l-.005-.279s-4.654 1.14-8.672.734c0 0 2.558-2.106 2.09-3.846z"/><path d="M202.409 122.839l4.902-8.424s17.963 16.966 27.166 23.144c0 0 .472.5 33.668-2.015l3.363-.108.741 13.574-2.646.225s-5.019-.061-10.949-.439-21.271-.664-21.271-.664-4.174.311-7.096-2.03-8.414-6.276-12.332-9.751-15.189-12.554-15.189-12.554l-.603-.526z"/></g><g transform="matrix(.48489 .057375 -.057375 .48489 81.32 101.3)"><path d="M115.9 67.341h15.075v15.075H115.9z" class="B"/><g class="F"><path d="M120.443 62.807h15.075l-4.534 4.534h-15.075z"/><path d="M135.539 77.861V62.786l-4.559 4.559V82.42z"/></g></g><g transform="matrix(.25754 -.26744 .26744 .25754 200.71 341.81)"><ellipse transform="matrix(.99365 -.11248 .073409 .9973 0 0)" cx="33.377" cy="37.418" rx="18.024" ry="18.108" class="F"/><g transform="matrix(.99174 -.11227 .073608 1 -6.1622 -1.5794)" clip-path="url(#E)" class="H"><use xlink:href="#K"/><path d="M46.837 26.281v-.837h5.087v.837zm3.382 3.704v-.837h5.087v.837zm2.172 4.39v-.837h5.087v.837zm.999 5.233v-.837h5.087v.837zm-.532 4.785v-.837h5.087v.837zm-1.68 4.382v-.837h5.087v.837zm-2.56 3.947v-.837h5.087v.837zm-4.052 3.065v-.837h5.087v.837z"/></g><g transform="matrix(.99365 -.11248 .073409 .9973 0 0)"><ellipse cx="30.181" cy="37.418" rx="18.024" ry="18.108" class="B"/><ellipse cx="30.181" cy="37.418" rx="15.402" ry="15.715" class="J"/></g><g transform="matrix(.99174 -.11227 .073608 1 -236.66 -34.06)" class="F"><rect transform="rotate(336.348)" x="205.65" y="186.21" width="1.903" height="21.557" ry=".866"/><rect transform="matrix(-.916 -.40119 -.40119 .916 0 0)" x="-278.56" y="-25.893" width="1.903" height="21.557" ry=".866"/><rect transform="matrix(.000308 -1 -1 -.000616 0 0)" x="-97.066" y="-271.99" width="1.903" height="15.241" ry=".951"/><rect transform="matrix(.000383 -1 -1 -.000495 0 0)" x="-100.51" y="-273.91" width="1.903" height="18.964" ry=".951"/></g><use xlink:href="#L" transform="matrix(.85352 -.57471 .54329 .87948 -18.378 15.182)" clip-path="url(#F)" class="H"/></g><path d="M204.01 118.11s-4.263-2.78-6.857-2.443l-2.9-.254s-.299-.003-1.299-.655l-2.215-1.418s-1.62-1.067-3.361-1.214c0 0-1.404-.448-1.022-1.12s1.246-1.453 6.533-.341c0 0 2.579.864 1.631-.215-.942-1.073-.569-.811-3.434-1.752-2.757-.906-3.901-1.195-6.525-1.421l-3.139-.531s-.367-.178-.573-1.027c.058-1.13.513-1.466.513-1.466.898-.302 1.832-.679 2.819-.738 2.424-.144 5.528-.32 11.379 2.433s7.952 5.67 7.952 5.67l2.352 2.362-.707 2.338z" fill="#e8d2ae"/><path transform="translate(-78.761 -5.521)" d="M279.13 258.69s4.618-13.423 5.717-19.977c0 0 .744-2.362.315-5.201s-1.493-5.217.625-8.808 4.173-5.73 5.408-11.83l3.179-12.492s.346-1.792 2.719-1.925 11.462-.975 29.697-2.014c0 0 11.936-.463 22.194-2.127l12.498-1.892 10.14-10.088 1.904-3.538 10.406.391 5.742-.382 1.126 2.797 1.379 5.925-.776.349s-2.757 1.903-12.688-.267l-1.471-.233s-1.969 10.392-11.102 27.931l-4.769-3.459-1.568-4.956-29.102 3.237-28.165-2.48-2.273 23.211-7.295 21.456-1.411 12.852-6.085-4.008z" clip-path="url(#J)" fill="#431766"/><path d="M310.52 187.82s-2.803.411-4.668 1.194c0 0-.062-6.135-2.494-12.952" stroke="#2e0d48" class="C M"/><path d="M271.98 149.13s-.462.169.538 1.69c.948 1.442 7.593 11.543 11.411 18.881.21.404 1.186.774 1.378 1.159l1.179-1.502-12.577-20.809z" fill="#22afec"/><g fill="#0682d9" transform="translate(-78.761 -5.521)"><path d="M362.01 148.31s-.273-.507.152-.665 1.391 1.577 1.391 1.577 10.783 18.777 30.828 15.202c0 0 1.266-.323.821.74s-1.046 1.708.312 1.958 2.595-.495 2.595-.495 4.677-3.282 6.747-5.179l.798.458-4.274 16.867-21.577 7.869-6.149-1.803-2.321-5.382-.936-6.18-7.957-18.4z" clip-path="url(#G)"/><path d="M359.35 132.42l-1.897 6.768s-3.701-.305-6.695 2.743c0 0 2.672.831 3.014 1.298s-.502.9-1.061 1.587-4.077 3.808-4.421 8.863l-.659 2.653-2.016-2.593 3.654-17.768 5.015-6.333 6.608.159z" clip-path="url(#H)"/></g><g transform="matrix(.40932 -.043551 .043551 .40932 171.39 94.717)"><ellipse transform="matrix(.99365 -.11248 .073409 .9973 0 0)" cx="33.377" cy="37.418" rx="18.024" ry="18.108" class="F"/><g transform="matrix(.99174 -.11227 .073608 1 -6.1622 -1.5794)" clip-path="url(#I)" class="H"><use xlink:href="#K"/><path d="M46.837 26.281v-.837h5.087v.837zm3.382 3.704v-.837h5.087v.837zm2.172 4.39v-.837h5.087v.837zm.999 5.233v-.837h5.087v.837zm-.532 4.785v-.837h5.087v.837zm-1.68 4.382v-.837h5.087v.837zm-2.56 3.947v-.837h5.087v.837zm-4.052 3.065v-.837h5.087v.837z"/></g><g transform="matrix(.99365 -.11248 .073409 .9973 0 0)"><ellipse cx="30.181" cy="37.418" rx="18.024" ry="18.108" class="B"/><ellipse cx="30.181" cy="37.418" rx="15.402" ry="15.715" class="J"/></g><g transform="matrix(.99174 -.11227 .073608 1 -236.66 -34.06)" class="F"><rect transform="rotate(336.348)" x="205.65" y="186.21" width="1.903" height="21.557" ry=".866"/><rect transform="matrix(-.916 -.40119 -.40119 .916 0 0)" x="-278.56" y="-25.893" width="1.903" height="21.557" ry=".866"/><rect transform="matrix(.000308 -1 -1 -.000616 0 0)" x="-97.066" y="-271.99" width="1.903" height="15.241" ry=".951"/><rect transform="matrix(.000383 -1 -1 -.000495 0 0)" x="-100.51" y="-273.91" width="1.903" height="18.964" ry=".951"/></g></g><path d="M204.01 118.11s-4.263-2.78-6.857-2.443l-2.9-.254s-.299-.003-1.299-.655l-2.215-1.418s-1.62-1.067-3.361-1.214c0 0-1.404-.448-1.022-1.12s1.246-1.453 6.533-.341c0 0 3.112 1.001 2.163-.079 1.932 1.415 3.155-.05 8.459 1.032l2.352 2.362-.707 2.338z" fill="#e8d2ae"/><path d="M271.93 206.04s-2.705 3.67-1.966 16.705c0 0 .488 7.275 1.043 8.516 0 0 1.198 1.707.8-2.794s.043-5.798.043-5.798.898 1.728 2.056 7.83c0 0 .253.728.606.443s.364.07.363-1.331-.703-5.214-1.206-7.949l.14-1.27.398.576s1.038 3.695 4.553 5.785c0 0 .543.598 1.187.189s-1.532-2.351-1.532-2.351-2.744-2.859-2.382-4.036c0 0 2.479 2.177 3.838 2.361s.824-.841.177-1.38-4.197-3.7-4.533-5.869.249-8.406.249-8.406l-2.203-.988z" class="K"/><path d="M271.6 203.81s-.871 1.494-1.116 1.649 5.606 1.879 8.608 3.273l.673-2.52-2.529-2.703z" class="G"/><path d="M283.25 142.79l12.312 25.656s1.636 2.75.128 6.293-6.236 13.824-15.277 31.863l-9.562-3.029s8.967-16.085 13.886-26.424c0 0 1.589-2.847 1.116-4.439s-2.307-5.882-7.689-14.091l-5.919-9.61" class="I"/><path d="M278.24 124.07l.044-1.776-.341-10.116.23-9.633-5.856-6.41-4.427.972-.533.607s-2.425 7.338-5.074 8.806-3.447.925-6.458.815c0 0-1.223-.059-.141.667l2.364 1.621s.492.051-.19 2.582-.673 5.442-.673 5.442-.286 1.025 1.419 1.968 1.388 1.241 6.489 3.663c0 0 1.701.452 1.934 2.029s.568 4.345 1.113 5.784" class="K"/><path d="M275.6 85.477c-.865.157-2.309 1.039-3.567 3.413 0 0-.743 1.215-.726 3.84 0 0-.601.391-.921-.118s-1.813-2.016-.872-4.953c0 0 .785-1.425-.919-.533s-2.444 4.858-2.122 9.327c0 0-.22.979 2.427 1.757s5.657 2.284 5.657 2.284.355.104-.171.867-2.889 3.285-3.699 6.304c0 0-.409.475.483.889l1.251.727s.256.246.782-.627 1.277-1.138 1.277-1.138 2.075-.779 2.447 1.374-.245 3.565-.245 3.565-.294 1.467-1.555 1.306-2.325.438-2.461-.453c0 0-.258-.528-.336.16s-.245 3.072 2.263 5.853 4.446 3.005 4.446 3.005l2.994-7.547 4.4-6.544s1.637-1.723 1.587-4.682l-.18-.48 1.304-.706 1.114-.028s.437-.16.224-.773-.98-.681-1.292-.316-.975.562-.975.562l-.087-.349.417-.46.101-.417.238-.193.142-.434.096-.434-.228-.209-.252-.034s-.078-.097-.279 0l-.228.117-.437.463-.103.657-.012.272-.101.254-.54.047-.4-.446-6.036-3.381-4.082-2.453c-.956-1.137-.227-4.8.705-5.318 0 0 .859-.383.599-.517-.572-.293-2.194.116-2.677 2.107 0 0-1.022.316-.656-1.526s.851-2.398 2.033-3.192c0 0 .626-.54-.15-.804-.097-.033-.477-.12-.601-.098z" fill="#311112"/><path d="M267.84 99.57l-.361.231s-.019.217.035.322l.402.728.2.378.146.329c.091.203.183.368.238.459s.019.074.129.184.229.239.312.239.386.023.458-.088-.225-.878-.225-.878l-.365-.714-.293-.46c-.111-.148-.11-.202-.221-.331l-.329-.387zm-1.11 3.68s.29.831.1 1.666-.617 1.362-.617 1.362l-.654 1.516-.087.195-.503.127-.305-.112.149-.669c.034-.082.941-3.186 1.918-4.084zm-8.66 8.15s2.705.794 3.296-.275c0 0 .747.836-.361 1.223s-2.779.258-3.208.145"/><g class="C"><path d="M303.47 201.28l2.246-1.983-.156.727-.577-.074" stroke="#2e0d48" class="M"/><path transform="matrix(.51856 -.85504 -.10255 .99473 0 0)" d="m799.2 832.2a69.885 122.47 0 0 1-55.63 119.89" stroke="#01de86" class="L"/></g><path d="M352.16 168.81s1.89-4.985 6.016-4.911 7.861 1.966 9.716 3.687c0 0 1.217-8.994 6.594-10.339s11.376.81 14.741 5.506 4.084 4.575 4.084 4.575 11.627-.879 15.532 1.013-8.717 3.465-15.098 3.227-12.353.236-12.353.236-1.921-.067.92 1.027c0 0 3.421.157 4.556 1.008s.168 1.177-9.38 1.248-28.688-.507-38.091-1.077c0 0-3.736-.356-2.081-2.595 0 0 1.203-1.18 3.657-.361 0 0 .678-2.708 3.611-2.401 0 0 1.206-.339 2.54.691 0 0 1.657-.791 4.102.02 0 0 .554.076.934-.556zm80.45 31.59s20.855 1.983 40.092.268l.545-.147s.824-.912-6.227-1.004l-1.571.16s-.332.011-.442-.663-.526-1.889-.526-1.889-.904-3.488-4.301-1.585c0 0-.772.534-.947 1.089 0 0-.382.379-.456-.191s-1.16-9.35-4.146-10.71-10.966-.321-13.528 4.737c0 0-2.002 3.214-2.38 6.093 0 0-2.302-1.729-1.842 2.916 0 0-5.346-.342-4.271.925zm-12.47-54.09s-3.01-.591-2.719.927 6.321.941 12.164 1.022c0 0 5.219-.624 3.959.447 0 0-3.32 1.774 4.204 1.501s8.416-.004 8.673-1.354-5.112-1.954-5.112-1.954-.525-.313.993-.537 4.262.076 4.82-1.745-1.504-2.72-3.174-2.388c0 0-1.851-4.044-3.787-3.173 0 0-2.664-3.92-7.716-2.365s-2.971 7.11-2.971 7.11-3.678-1.953-5.603 1.825c0 0-3.553-.527-3.732.683z" class="G"/><g class="B"><ellipse cx="351.81" cy="208.98" rx="11.502" ry="11.743"/><path d="M386.26 213.04s-8.276 13.352-2.388 25.136c0 0 2.797 4.589 6.377 6.647 0 0 5.487-1.364 8.227-7.79s-.697-12.288-1.66-14.003c0 0 2.101-6.248-4.199-12.253 0 0 .727-5.144-1.691-6.409s-4.438.392-4.667 8.672zm67.99 14.33s-12.224 2.232-13.161 13.163 10.069 13.824 12.168 13.79 13.516-.014 15.775-11.413-9.167-16.71-14.781-15.54zm37.05-47.24s-10.646 21.481-3.139 30.939c0 0 3.596 5.319 7.6 7.829 0 0 3.057-.452 7.719-7.458 2.257-3.392 2.139-6.843 1.063-8.935 0 0 4.272-14.429-6.133-25.134 0 0 .814-6.274-1.891-7.818s-4.964.478-5.219 10.577z"/></g><path d="M308.27 260.53s22.937-17.301 41.909-17.589 25.089 2.662 44.199 16.722 33.867 15.373 50.952 13.458 25.461-11.24 29.359-15.087 10.237-14.088 10.237-14.088 9.434-14.072 22.124-20.378 19.703-6.14 19.703-6.14.574-6.504-2.574-8.176-13.178 1.33-14.454 11.623l-.479.471s-4.217-3.434-7.568 4.435c0 0-7.84-2.522-9.798 9.087l-.184.754s-6.115 6.515-7.627 9.61c0 0-7.255-1.296-13.033 6.459s-6.535 14.823-6.535 14.823l-.437.289s-6.466-1.692-17.266.767-14.018 6.177-14.018 6.177-4.568-.124-6.582-.463c0 0-.141-8.506-8.483-11.94 0 0-5.368-2.008-12.41-.564 0 0-3.435-10.01-5.016-11.379s-5.763-3.927-8.82 1.37l-.864.509s-5.449-4.769-9.497-4.877-5.801.825-5.801.825-6.76-3.384-12.688-3.806c0 0-1.346-4.88-5.265-4.464 0 0-1.879.03-4.136 1.375l-.566-.094s-3.266-5.307-7.301-6.214-9.334-.931-11.966 2.574-2.297 7.939-2.297 7.939l-.777.115s-6.311-1.114-9.199 1.839c0 0-1.055 1.229-1.056 3.133l-.789.486-.431.018s-7.846-1.48-9.113 3.78-1.216 6.444-1.216 6.444z" fill="#e3deda"/><g class="G"><rect transform="rotate(312.935)" x="189.19" y="495.64" width=".678" height="5.537" rx=".088" ry=".833"/><rect transform="matrix(-.6582 -.75285 -.71061 .70359 0 0)" x="-502.9" y="-238.31" width=".687" height="5.586" rx=".089" ry=".841"/><rect transform="rotate(45)" x="498.61" y="-164.15" width=".754" height="20.277" rx=".126" ry="0"/><rect transform="rotate(11.565)" x="500.46" y="132.38" width=".771" height="14.696" rx=".126" ry="0"/><g transform="rotate(311.565)"><rect x="124.16" y="487.42" width=".866" height="9.702" rx=".126" ry="0"/><rect x="117.83" y="487.17" width=".888" height="15.645" rx=".126" ry="0"/></g><rect transform="matrix(-.70711 .70711 .70711 .70711 0 0)" x="-96.929" y="385.9" width=".757" height="14.674" rx=".126" ry="0"/><path d="M345.829 198.958l-.764.156 2.547 12.447.764-.156z"/><rect transform="matrix(-.80225 -.59698 -.59698 .80225 0 0)" x="-407.96" y="-54.008" width=".782" height="12.845" rx=".126" ry="0"/></g><path d="M40.26 110.31c12.066 10.836 35.687 33.1 34.903 32.396M40.26 110.31l54.511-1.493M40.26 110.31l7.144-59.46" class="C D E"/><circle transform="rotate(0.786)" cx="41.862" cy="109.67" r="6.841" class="B"/><path d="m113.07 65.881-65.662-15.026" class="C D E"/><circle transform="rotate(0.786)" cx="48.059" cy="50.438" r="4.129" class="B"/><g class="C D E"><path d="M75.163 142.71l41.293-19.533M94.771 108.82l35.396-17.5"/><path d="M94.771 108.82l21.685 14.355M94.771 108.82l18.295-42.94m17.104 25.442l-17.101-25.441"/></g><circle transform="rotate(0.786)" cx="113.81" cy="64.009" r="4.825" class="B"/><path d="m116.46 123.18 13.711-31.855" class="C D E"/><g transform="rotate(0.786)" class="B"><circle cx="118.48" cy="122.06" r="3.698"/><circle cx="131.51" cy="89.536" r="6.117"/></g><path d="m75.163 142.71 19.608-33.889" class="C D E"/><circle transform="rotate(0.786)" cx="96.23" cy="107.68" r="4.094" class="B"/><path d="m100.66 229.35-25.492-86.641" class="C D E"/><circle transform="rotate(0.786)" cx="77.457" cy="141.4" r="9.165" class="B"/><path d="M106.03 260.95l-5.374-31.594M50.341 232.5l50.314-3.152m-82.37 62.372l32.056-59.218m-2.529 40.808l2.529-40.805" class="C D E"/><circle transform="rotate(0.786)" cx="53.537" cy="231.43" r="4.825" class="B"/><path d="M47.812 273.31l58.217-12.363M18.285 291.72l29.527-18.413m-3.85 35.093l41.097-7.387M47.812 273.31l37.247 27.706" class="C D E"/><circle transform="rotate(0.786)" cx="51.717" cy="273.16" r="2.887" class="B"/><path d="m106.03 260.95-20.97 40.069" class="C D E"/><g transform="rotate(0.786)" class="B"><circle cx="88.968" cy="300.04" r="3.698"/><circle cx="109.47" cy="259" r="4.28"/></g><path d="M137.33 269.31l-36.675-39.961m36.675 39.961l27.239 27.487" class="C D E"/><circle transform="rotate(0.786)" cx="168.89" cy="293.65" r="6.968" class="B"/><path d="m113.16 322.89 24.172-53.574" class="C D E"/><g transform="rotate(0.786)" class="B"><circle cx="118.34" cy="321.15" r="4.825"/><circle cx="141.26" cy="267.71" r="3.555"/></g><path d="m100.66 229.35 63.583-49.102" class="C D E"/><circle transform="rotate(0.786)" cx="103.12" cy="227.38" r="6.841" class="B"/><path d="m164.24 180.25 17.714-11.082" class="C D E"/><circle transform="rotate(0.786)" cx="184.33" cy="166.65" r="3.078" class="B"/><path d="M164.24 180.25l45.745 4.353" class="C D E"/><circle transform="rotate(0.786)" cx="212.3" cy="181.94" r="2.666" class="B"/><path d="M137.66 180.33l26.581-.083" class="C D E"/><circle transform="rotate(0.786)" cx="140.1" cy="178.43" r="1.509" class="B"/><path d="m150.05 161.79 14.187 18.455" class="C D E"/><circle transform="rotate(0.786)" cx="152.63" cy="159.94" r="2.666" class="B"/><path d="m180 201.49-15.765-21.241" class="C D E"/><g transform="rotate(0.786)" class="B"><circle cx="167.51" cy="177.87" r="4.26"/><circle cx="182.86" cy="199.27" r="1.602"/></g><path d="m18.285 291.72 25.677 16.679" class="C D E"/><g transform="rotate(0.786)" class="B"><circle cx="22.894" cy="291.35" r="6.354"/><circle cx="48.462" cy="307.86" r="2.887"/></g><g transform="matrix(.59711 .12808 -.12808 .59711 5.8691 211.17)"><ellipse transform="matrix(.99365 -.11248 .073409 .9973 0 0)" cx="33.377" cy="37.418" rx="18.024" ry="18.108" class="F"/><g transform="matrix(.99174 -.11227 .073608 1 -6.1622 -1.5794)" clip-path="url(#A)" class="H"><use xlink:href="#K"/><path d="M46.837 26.281v-.837h5.087v.837zm3.382 3.704v-.837h5.087v.837zm2.172 4.39v-.837h5.087v.837zm.999 5.233v-.837h5.087v.837zm-.532 4.785v-.837h5.087v.837zm-1.68 4.382v-.837h5.087v.837zm-2.56 3.947v-.837h5.087v.837zm-4.052 3.065v-.837h5.087v.837z"/></g><g transform="matrix(.99365 -.11248 .073409 .9973 0 0)"><ellipse cx="30.181" cy="37.418" rx="18.024" ry="18.108" class="B"/><ellipse cx="30.181" cy="37.418" rx="15.402" ry="15.715" class="J"/></g><g transform="matrix(.99174 -.11227 .073608 1 -236.66 -34.06)" class="F"><rect transform="rotate(336.348)" x="205.65" y="186.21" width="1.903" height="21.557" ry=".866"/><rect transform="matrix(-.916 -.40119 -.40119 .916 0 0)" x="-278.56" y="-25.893" width="1.903" height="21.557" ry=".866"/><rect transform="matrix(.000308 -1 -1 -.000616 0 0)" x="-97.066" y="-271.99" width="1.903" height="15.241" ry=".951"/><rect transform="matrix(.000383 -1 -1 -.000495 0 0)" x="-100.51" y="-273.91" width="1.903" height="18.964" ry=".951"/></g><use xlink:href="#L" transform="matrix(.85352 -.57471 .54329 .87948 -18.378 15.182)" clip-path="url(#B)" class="H"/></g><g transform="matrix(-.31976 -.13015 .13015 -.31976 182.37 44.767)"><ellipse transform="matrix(.99365 -.11248 .073409 .9973 0 0)" cx="33.377" cy="37.418" rx="18.024" ry="18.108" class="F"/><g transform="matrix(.99174 -.11227 .073608 1 -6.1622 -1.5794)" clip-path="url(#C)" class="H"><use xlink:href="#K"/><path d="M46.837 26.281v-.837h5.087v.837zm3.382 3.704v-.837h5.087v.837zm2.172 4.39v-.837h5.087v.837zm.999 5.233v-.837h5.087v.837zm-.532 4.785v-.837h5.087v.837zm-1.68 4.382v-.837h5.087v.837zm-2.56 3.947v-.837h5.087v.837zm-4.052 3.065v-.837h5.087v.837z"/></g><g transform="matrix(.99365 -.11248 .073409 .9973 0 0)"><ellipse cx="30.181" cy="37.418" rx="18.024" ry="18.108" class="B"/><ellipse cx="30.181" cy="37.418" rx="15.402" ry="15.715" class="J"/></g><g transform="matrix(.99174 -.11227 .073608 1 -236.66 -34.06)" class="F"><rect transform="rotate(336.348)" x="205.65" y="186.21" width="1.903" height="21.557" ry=".866"/><rect transform="matrix(-.916 -.40119 -.40119 .916 0 0)" x="-278.56" y="-25.893" width="1.903" height="21.557" ry=".866"/><rect transform="matrix(.000308 -1 -1 -.000616 0 0)" x="-97.066" y="-271.99" width="1.903" height="15.241" ry=".951"/><rect transform="matrix(.000383 -1 -1 -.000495 0 0)" x="-100.51" y="-273.91" width="1.903" height="18.964" ry=".951"/></g><use xlink:href="#L" transform="matrix(.85352 -.57471 .54329 .87948 -18.378 15.182)" clip-path="url(#D)" class="H"/></g><circle cx="47.901" cy="134.3" r="3.091" fill="#b0bebc"/><circle cx="187.4" cy="85.078" r="1.932" fill="#e9c3b4"/><circle cx="150.67" cy="61.533" r="1.932" class="G"/><g transform="matrix(.044112 .28976 -.28976 .044112 134.81 238.79)"><path d="M115.9 67.341h15.075v15.075H115.9z" class="B"/><g class="F"><path d="M120.443 62.807h15.075l-4.534 4.534h-15.075z"/><path d="M135.539 77.861V62.786l-4.559 4.559V82.42z"/></g></g><g class="G"><rect x="351.2" y="197.24" width=".648" height="45.929" rx=".163" ry="4.455"/><rect x="389.84" y="226.83" width=".844" height="29.792" rx=".123" ry="6.663"/><rect x="454.26" y="227.5" width=".972" height="43.588" rx=".126" ry="6.56"/><rect x="495.6" y="192.15" width=".869" height="39.008" rx=".113" ry="5.871"/></g><path d="M526.75 217.43s-20.57 1.468-36.021 19.451-10.715 20.98-32.28 32.897c0 0-25.146 10.261-49.749-1.553 0 0-9.572-4.147-15.938-9.793s-22.07-15.536-33.05-15.361-21.181-2.727-51.212 17.285" stroke="#fff" stroke-width=".565" class="C"/><g fill="#b0bebc"><circle cx="286.64" cy="257.17" r="1.049"/><circle cx="316.83" cy="288.98" r="1.86"/></g><g class="G"><circle cx="68.734" cy="200.55" r="5.908"/><circle cx="149.67" cy="248.66" r="3.488"/></g><path d="M526.75 217.43s-16.354 1.4-29.172 12.41-22.14 35.997-43.321 41.25-39.02 3.679-57.562-9.786-26.836-19.135-44.85-18.132-23.054 4.409-43.343 17.184" stroke="#fff" stroke-width=".529" class="C"/></svg>