<?xml version="1.0" encoding="UTF-8"?>
<svg width="21.721" height="14.944" version="1.1" viewBox="0 0 5.747 3.9539" xmlns="http://www.w3.org/2000/svg" xmlns:cc="http://creativecommons.org/ns#" xmlns:dc="http://purl.org/dc/elements/1.1/" xmlns:rdf="http://www.w3.org/1999/02/22-rdf-syntax-ns#" xmlns:xlink="http://www.w3.org/1999/xlink">
 <metadata>
  <rdf:RDF>
   <cc:Work rdf:about="">
    <dc:format>image/svg+xml</dc:format>
    <dc:type rdf:resource="http://purl.org/dc/dcmitype/StillImage"/>
    <dc:title/>
   </cc:Work>
  </rdf:RDF>
 </metadata>
 <g transform="translate(-5.0609 -6.3136)">
  <g>
   <text x="44.188549" y="119.07925" fill="none" font-family="sans-serif" font-size="66.411px" stroke-width="1.6603" style="line-height:1.25" xml:space="preserve"><tspan x="44.188549" y="119.07925" fill="none" stroke-width="1.6603">D</tspan></text>
   <g fill="#78f9ff" style="mix-blend-mode:normal" aria-label="E">
    <path d="m10.808 9.5309h-2.2183v-0.89182h2.1392v-0.69427h-2.1392v-0.90875h2.2183v-0.72249h-2.9577v3.9511h2.9577z" fill="#78f9ff" stroke-width=".265"/>
   </g>
   <g transform="scale(-1,1)" fill="#ff7aff" style="mix-blend-mode:normal" aria-label="D">
    <path d="m-8.5898 6.3145v3.9512h1.5527c1.3829 0 1.9935-1.0107 1.9766-2.0098-0.016933-0.97649-0.6219-1.9414-1.9766-1.9414zm0.74023 0.70508h0.8125c0.85795 0 1.2194 0.61522 1.2363 1.2305 0.016933 0.64347-0.33886 1.2988-1.2363 1.2988h-0.8125z" fill="#ff7aff" stroke-width=".26458"/>
   </g>
  </g>
  <path d="m7.8462 6.3151h0.74451v3.9524h-0.74451z" fill="#c9f8ff" stroke-width=".56502"/>
 </g>
</svg>
