<?xml version="1.0" encoding="UTF-8"?>
<svg width="100" height="100" fill="none" version="1.1" viewBox="0 0 100 100" xmlns="http://www.w3.org/2000/svg" xmlns:cc="http://creativecommons.org/ns#" xmlns:dc="http://purl.org/dc/elements/1.1/" xmlns:rdf="http://www.w3.org/1999/02/22-rdf-syntax-ns#">
 <metadata>
  <rdf:RDF>
   <cc:Work rdf:about="">
    <dc:format>image/svg+xml</dc:format>
    <dc:type rdf:resource="http://purl.org/dc/dcmitype/StillImage"/>
    <dc:title/>
   </cc:Work>
  </rdf:RDF>
 </metadata>
 <rect width="100" height="100" fill="none"/>
 <path d="m87.059 13.222-36.059-10.222-36.059 10.222c-3.6059 1.8038-4.8078 2.1534-4.8078 7.2152 0 5.0619-1.202 34.272 3.6058 45.696 3.0365 7.2152 7.2117 18.038 37.261 31.867 30.049-13.829 34.224-24.652 37.261-31.867 4.8078-11.424 3.6058-40.634 3.6058-45.696 0-5.0618-1.2019-5.4114-4.8078-7.2152z" fill="#fff" stroke="#253A3C" stroke-width="2.5"/>
 <path d="m53 85.793c-28.286-13.883-25.339-37.423-24.161-65.793l-3.5357 1.8108-3.5357 1.2072-1.7679 3.6216v18.108l0.5893 9.0541 1.7678 6.036 2.3572 5.1307 2.3571 5.1306 5.8929 6.6396 17.089 10.261 2.9464-1.2072z" fill="#DCE1E5"/>
 <path d="m78.264 21.854-27.264-7.8544-27.264 7.8544c-2.7264 1.3861-3.6352 1.6547-3.6352 5.5443 0 3.8897-0.9088 26.336 2.7264 35.114 2.2959 5.5443 5.4527 13.861 28.173 24.487 22.72-10.627 25.877-18.943 28.173-24.487 3.6352-8.7785 2.7264-31.224 2.7264-35.114 0-3.8896-0.9088-4.1582-3.6352-5.5443z" stroke="#253A3C" stroke-width="2.5"/>
 <rect transform="rotate(-.20752 38.928 43.911)" x="38.928" y="43.911" width="24.118" height="18.088" rx="3" fill="#01DE86"/>
 <path d="m43.756 45.1-0.0175-4.8235c-0.0144-3.996 3.2132-7.247 7.2091-7.2615s7.247 3.2131 7.2614 7.2091l0.0175 4.8234" stroke="#01DE86" stroke-width="2"/>
 <circle transform="rotate(-.20752 51.018 52.309)" cx="51.018" cy="52.309" r="3.6176" fill="#fff"/>
</svg>
